<?xml version="1.0" encoding="utf-8"?>
<!-- Generator: Adobe Illustrator 21.0.0, SVG Export Plug-In . SVG Version: 6.00 Build 0)  -->
<svg version="1.0" id="Ebene_3" xmlns="http://www.w3.org/2000/svg" xmlns:xlink="http://www.w3.org/1999/xlink" x="0px" y="0px"
	 viewBox="0 0 249.4 283.5" style="enable-background:new 0 0 249.4 283.5;" xml:space="preserve">
<g>
	<path d="M130.8,5c28.5,0,50.9,6.2,67.2,18.5c16.3,12.3,24.4,30,24.4,53.1c0,27-11.7,46.6-35.2,58.9c26.7,13.4,40,35,40,65.1
		c0,24.4-8.1,43.4-24.4,57c-16.3,13.6-38.5,20.4-66.8,20.4H40.8V5H130.8z M129.6,36.6H76.8v83.2h54.4c19.2,0,33.1-3.2,41.6-9.6
		s12.8-17.1,12.8-32C185.6,50.5,166.9,36.6,129.6,36.6z M175.8,163.7c-9.7-8.2-24.2-12.3-43.4-12.3H76.8v95.1h55.6
		c38.7,0,58-15.8,58-47.4C190.4,183.7,185.5,171.9,175.8,163.7z"/>
</g>
</svg>
