<?xml version="1.0" encoding="utf-8"?>
<!-- Generator: Adobe Illustrator 21.0.0, SVG Export Plug-In . SVG Version: 6.00 Build 0)  -->
<svg version="1.0" id="Ebene_3" xmlns="http://www.w3.org/2000/svg" xmlns:xlink="http://www.w3.org/1999/xlink" x="0px" y="0px"
	 viewBox="0 0 249.4 283.5" style="enable-background:new 0 0 249.4 283.5;" xml:space="preserve">
<g>
	<path d="M196.4,26.9c17.6,18,26.4,42.1,26.4,72.4V184c0,39-13.7,67.1-41.2,84.3l28,63.9h-38.4L148.8,281c-8,1.5-16.3,2.3-24.8,2.3
		c-30.7,0-54.8-9-72.4-26.9c-17.6-18-26.4-42.1-26.4-72.4V99.3c0-30.3,8.8-54.4,26.4-72.4C69.2,9,93.3,0,124,0S178.8,9,196.4,26.9z
		 M135.2,162l32.4,74.3c12.8-11.5,19.2-29.1,19.2-52.7V99.7c0-21.8-5.5-38.5-16.4-50S144,32.3,124,32.3s-35.5,5.8-46.4,17.3
		c-10.9,11.5-16.4,28.2-16.4,50v83.9c0,21.8,5.5,38.5,16.4,50C88.5,245.2,104,251,124,251c2.7,0,6.4-0.3,11.2-0.8L96.8,162H135.2z"
		/>
</g>
</svg>
