<?xml version="1.0" encoding="utf-8"?>
<!-- Generator: Adobe Illustrator 21.0.0, SVG Export Plug-In . SVG Version: 6.00 Build 0)  -->
<svg version="1.0" xmlns="http://www.w3.org/2000/svg" xmlns:xlink="http://www.w3.org/1999/xlink" x="0px" y="0px"
	 viewBox="0 0 249.4 354.3" enable-background="new 0 0 249.4 354.3" xml:space="preserve">
<g id="Linea_16" display="none">
	
		<polyline display="inline" fill="none" stroke="#000000" stroke-width="0.25" stroke-linecap="round" stroke-linejoin="round" stroke-miterlimit="10" points="
		131.5,289.1 145.1,289.1 145.1,246 117.9,246 117.9,248.3 142.9,248.3 142.9,286.9 131.5,286.9 131.5,284.6 140.6,284.6 
		140.6,250.6 117.9,250.6 117.9,277.8 115.7,277.8 115.7,246 113.4,246 113.4,280.1 120.2,280.1 120.2,252.9 138.3,252.9 
		138.3,282.3 131.5,282.3 131.5,280.1 136.1,280.1 136.1,255.1 122.5,255.1 122.5,282.3 111.1,282.3 111.1,246 108.9,246 
		108.9,284.6 124.7,284.6 124.7,257.4 133.8,257.4 133.8,277.8 131.5,277.8 131.5,259.7 127,259.7 127,286.9 106.6,286.9 106.6,246 
		104.3,246 104.3,289.1 129.3,289.1 129.3,261.9 	"/>
	
		<polyline display="inline" fill="none" stroke="#000000" stroke-width="0.25" stroke-linecap="round" stroke-linejoin="round" stroke-miterlimit="10" points="
		141.9,91.8 142.9,5.7 106.6,5.7 107.8,110 126,110 125.8,189.4 123.7,189.4 123.7,112.3 121.4,112.3 121.5,191.6 127.9,191.6 
		128.2,107.7 110,107.7 109,7.9 140.4,7.9 139.6,91.8 137.3,91.8 138,10.2 111.4,10.2 112.3,105.4 130.5,105.4 130,193.9 
		119.4,193.9 119.1,112.3 116.9,112.3 117.3,196.2 132.1,196.2 132.8,103.2 114.6,103.2 113.8,12.5 135.6,12.5 135.1,91.8 
		132.8,91.8 133.2,14.7 116.3,14.7 116.9,100.9 135,100.9 134.2,198.4 115.2,198.4 114.6,112.3 112.3,112.3 113.1,200.7 
		136.4,200.7 137.3,98.6 119.1,98.6 118.7,17 130.8,17 130.5,91.8 128.2,91.8 128.4,19.3 121.1,19.3 121.4,96.4 139.6,96.4 
		138.5,203 111,203 110.1,112.3 107.8,112.3 108.9,205.2 140.6,205.2 141.9,94.1 123.7,94.1 123.5,21.5 125.9,21.5 126,91.8 	"/>
</g>
<g id="Linea_6">
	<polyline fill="none" stroke="#000000" stroke-linecap="round" stroke-linejoin="round" stroke-miterlimit="10" points="
		128.1,89.6 128.4,19.3 121.1,19.3 121.3,96.4 141.8,96.4 140.6,205.2 108.9,205.2 107.7,116.8 114.6,116.8 115.2,198.4 
		134.2,198.4 134.9,103.2 114.5,103.2 113.8,12.5 135.6,12.5 134.9,89.6 141.9,89.6 142.9,5.7 106.6,5.7 107.8,110 128.1,110 
		127.9,191.6 121.5,191.6 121.3,116.8 	"/>
	<polyline fill="none" stroke="#000000" stroke-linecap="round" stroke-linejoin="round" stroke-miterlimit="10" points="
		131.5,259.7 131.5,289.1 104.3,289.1 104.3,246 111.1,246 111.1,282.3 124.7,282.3 124.7,252.9 138.3,252.9 138.3,289.1 
		145.1,289.1 145.1,246 117.9,246 117.9,275.5 	"/>
</g>
</svg>
