<?xml version="1.0" encoding="utf-8"?>
<!-- Generator: Adobe Illustrator 21.0.0, SVG Export Plug-In . SVG Version: 6.00 Build 0)  -->
<svg version="1.0" xmlns="http://www.w3.org/2000/svg" xmlns:xlink="http://www.w3.org/1999/xlink" x="0px" y="0px"
	 viewBox="0 0 249.4 354.3" enable-background="new 0 0 249.4 354.3" xml:space="preserve">
<g id="Linea_16" display="none">
	
		<polyline display="inline" fill="none" stroke="#000000" stroke-width="0.25" stroke-linecap="round" stroke-linejoin="round" stroke-miterlimit="10" points="
		144.3,286.9 154.2,243.8 115.7,243.8 104.2,305 123.4,305 116.7,336.8 114.4,336.8 120.5,307.3 118.1,307.3 111.6,339 118.5,339 
		126.3,302.7 107,302.7 117.8,246 151.1,246 141.9,286.9 139.4,286.9 148.1,248.3 119.9,248.3 109.8,300.5 129.1,300.5 120.4,341.3 
		108.9,341.3 115.7,307.3 113.3,307.3 106.1,343.6 122.2,343.6 132.1,298.2 112.7,298.2 122,250.6 145,250.6 137,286.9 134.5,286.9 
		141.9,252.9 124.1,252.9 115.6,295.9 135,295.9 124,345.8 103.4,345.8 110.9,307.3 108.5,307.3 100.7,348.1 125.7,348.1 
		137.9,293.7 118.5,293.7 126.2,255.1 138.9,255.1 132.1,286.9 129.6,286.9 135.9,257.4 128.3,257.4 121.4,291.4 140.9,291.4 
		127.5,350.4 97.9,350.4 106.1,307.3 103.7,307.3 95.2,352.6 129.3,352.6 143.8,289.1 124.3,289.1 130.4,259.7 132.9,259.7 
		127.2,286.9 	"/>
</g>
<g id="Linea_6">
	<polyline fill="none" stroke="#000000" stroke-linecap="round" stroke-linejoin="round" stroke-miterlimit="10" points="
		130.6,282.3 135.9,257.4 128.3,257.4 121.8,289.1 143.8,289.1 129.3,352.6 95.2,352.6 103.3,309.5 110.5,309.5 103.4,345.8 
		124,345.8 135,295.9 113.1,295.9 122,250.6 145,250.6 138,282.3 145.4,282.3 154.2,243.8 115.7,243.8 104.6,302.7 126.3,302.7 
		118.5,339 111.6,339 117.6,309.5 	"/>
</g>
</svg>
