<?xml version="1.0" encoding="utf-8"?>
<!-- Generator: Adobe Illustrator 21.0.0, SVG Export Plug-In . SVG Version: 6.00 Build 0)  -->
<svg version="1.0" xmlns="http://www.w3.org/2000/svg" xmlns:xlink="http://www.w3.org/1999/xlink" x="0px" y="0px"
	 viewBox="0 0 249.4 354.3" enable-background="new 0 0 249.4 354.3" xml:space="preserve">
<g id="Linea_16" display="none">
	
		<polyline display="inline" fill="none" stroke="#000000" stroke-width="0.25" stroke-linecap="round" stroke-linejoin="round" stroke-miterlimit="10" points="
		131.5,289.1 145.1,289.1 145.1,246 117.9,246 117.9,248.3 142.9,248.3 142.9,286.9 131.5,286.9 131.5,284.6 140.6,284.6 
		140.6,250.6 117.9,250.6 117.9,277.8 115.7,277.8 115.7,246 113.4,246 113.4,280.1 120.2,280.1 120.2,252.9 138.3,252.9 
		138.3,282.3 131.5,282.3 131.5,280.1 136.1,280.1 136.1,255.1 122.5,255.1 122.5,282.3 111.1,282.3 111.1,246 108.9,246 
		108.9,284.6 124.7,284.6 124.7,257.4 133.8,257.4 133.8,277.8 131.5,277.8 131.5,259.7 127,259.7 127,286.9 106.6,286.9 106.6,246 
		104.3,246 104.3,289.1 129.3,289.1 129.3,261.9 	"/>
</g>
<g id="Linea_6">
	<polyline fill="none" stroke="#000000" stroke-linecap="round" stroke-linejoin="round" stroke-miterlimit="10" points="
		131.5,259.7 131.5,289.1 104.3,289.1 104.3,246 111.1,246 111.1,282.3 124.7,282.3 124.7,252.9 138.3,252.9 138.3,289.1 
		145.1,289.1 145.1,246 117.9,246 117.9,275.5 	"/>
</g>
</svg>
