<?xml version="1.0" encoding="utf-8"?>
<!-- Generator: Adobe Illustrator 21.0.0, SVG Export Plug-In . SVG Version: 6.00 Build 0)  -->
<svg version="1.0" xmlns="http://www.w3.org/2000/svg" xmlns:xlink="http://www.w3.org/1999/xlink" x="0px" y="0px"
	 viewBox="0 0 249.4 354.3" enable-background="new 0 0 249.4 354.3" xml:space="preserve">
<g id="Linea_16" display="none">
	
		<polyline display="inline" fill="none" stroke="#000000" stroke-width="0.25" stroke-linecap="round" stroke-linejoin="round" stroke-miterlimit="10" points="
		133.8,205.2 195,205.2 195,171.2 115.7,171.2 115.7,189.4 68,189.4 68,187.1 113.4,187.1 113.4,184.8 65.8,184.8 65.8,191.6 
		117.9,191.6 117.9,173.5 192.8,173.5 192.8,203 133.8,203 133.8,200.7 190.5,200.7 190.5,175.7 120.2,175.7 120.2,193.9 
		63.5,193.9 63.5,182.6 113.4,182.6 113.4,180.3 61.2,180.3 61.2,196.2 122.5,196.2 122.5,178 188.2,178 188.2,198.4 133.8,198.4 
		133.8,196.2 186,196.2 186,180.3 124.7,180.3 124.7,198.4 59,198.4 59,178 113.4,178 113.4,175.7 56.7,175.7 56.7,200.7 127,200.7 
		127,182.6 183.7,182.6 183.7,193.9 133.8,193.9 133.8,191.6 181.4,191.6 181.4,184.8 129.3,184.8 129.3,203 54.4,203 54.4,173.5 
		113.4,173.5 113.4,171.2 52.2,171.2 52.2,205.2 131.5,205.2 131.5,187.1 179.1,187.1 179.1,189.4 133.8,189.4 	"/>
</g>
<g id="Linea_6">
	<polyline fill="none" stroke="#000000" stroke-linecap="round" stroke-linejoin="round" stroke-miterlimit="10" points="
		138.3,191.6 181.4,191.6 181.4,184.8 131.5,184.8 131.5,205.2 52.2,205.2 52.2,171.2 111.1,171.2 111.1,178 59,178 59,198.4 
		124.7,198.4 124.7,178 188.2,178 188.2,198.4 138.3,198.4 138.3,205.2 195,205.2 195,171.2 117.9,171.2 117.9,191.6 65.8,191.6 
		65.8,184.8 111.1,184.8 	"/>
</g>
</svg>
