<?xml version="1.0" encoding="utf-8"?>
<!-- Generator: Adobe Illustrator 21.0.0, SVG Export Plug-In . SVG Version: 6.00 Build 0)  -->
<svg version="1.0" xmlns="http://www.w3.org/2000/svg" xmlns:xlink="http://www.w3.org/1999/xlink" x="0px" y="0px"
	 viewBox="0 0 249.4 354.3" enable-background="new 0 0 249.4 354.3" xml:space="preserve">
<g id="Linea_16" display="none">
	<g display="inline">
		
			<path fill="none" stroke="#000000" stroke-width="0.25" stroke-linecap="round" stroke-linejoin="round" stroke-miterlimit="10" d="
			M52.1,134.9l0-29.5c0-58.2,22.9-87.4,73.7-87.4s73.7,29.2,73.7,87.4l0,83.9c0,58.2-25.5,87.4-73.7,87.4s-73.7-29.2-73.7-87.4
			l0-36.3l-18.1,0v-47.6C34,35.1,64.9,1.1,125.9,1.1s91.8,34,91.8,104.3v83.9c0,70.3-34,104.3-91.8,104.3S34,259.7,34,189.4v-34
			l2.3,0l0,34c0,68.8,33,102.2,89.6,102.2s89.6-33.4,89.6-102.2l0-83.9c0-68.8-29.9-102.2-89.6-102.2S36.3,36.7,36.3,105.4l0,45.4
			l18.1,0l0,38.6c0,56.7,24.5,85.3,71.4,85.3s71.4-28.6,71.4-85.3l0-83.9c0-56.7-21.9-85.3-71.4-85.3s-71.4,28.6-71.4,85.3l0,29.5
			l2.3,0l0-29.5c0-55.2,20.9-83.1,69.2-83.1s69.2,28,69.2,83.1l0,83.9c0,55.2-23.4,83.1-69.2,83.1s-69.2-28-69.2-83.1l0-40.8
			l-18.1,0l0-43.1c0-67.3,28.9-100.1,87.3-100.1s87.3,32.8,87.3,100.1l0,83.9c0,67.3-31.9,100.1-87.3,100.1s-87.3-32.8-87.3-100.1
			l0-34l2.3,0l0,34c0,65.8,30.8,98,85,98s85-32.2,85-98l0-83.9c0-65.8-27.9-98-85-98s-85,32.2-85,98l0,40.8l18.1,0l0,43.1
			c0,53.7,22.4,81,66.9,81s66.9-27.4,66.9-81l0-83.9c0-53.7-19.9-81-66.9-81s-66.9,27.4-66.9,81l0,29.5l2.3,0l0-29.5
			c0-52.2,18.9-78.9,64.6-78.9s64.6,26.8,64.6,78.9l0,83.9c0,52.2-21.3,78.9-64.6,78.9s-64.6-26.8-64.6-78.9l0-45.4l-18.1,0l0-38.6
			c0-64.3,26.9-95.8,82.8-95.8s82.8,31.6,82.8,95.8l0,83.9c0,64.3-29.8,95.8-82.8,95.8s-82.8-31.6-82.8-95.8l0-34l2.3,0l0,34
			c0,62.7,28.7,93.7,80.5,93.7s80.5-31,80.5-93.7l0-83.9c0-62.7-25.9-93.7-80.5-93.7s-80.5,31-80.5,93.7l0,36.3l18.1,0l0,47.6
			c0,50.6,20.3,76.8,62.4,76.8s62.4-26.2,62.4-76.8l0-83.9c0-50.6-17.9-76.8-62.4-76.8s-62.4,26.2-62.4,76.8l0,29.5l2.3,0l0-29.5
			c0-49.1,16.9-74.7,60.1-74.7S186,56.3,186,105.4l0,83.9c0,49.1-19.2,74.7-60.1,74.7s-60.1-25.5-60.1-74.7l0-49.9l-18.1,0l0-34
			c0-61.2,24.9-91.6,78.2-91.6s78.2,30.4,78.2,91.6l0,83.9c0,61.2-27.7,91.6-78.2,91.6s-78.2-30.4-78.2-91.6l0-34l2.3,0l0,34
			c0,59.7,26.6,89.5,76,89.5s76-29.8,76-89.5l0-83.9c0-59.7-23.9-89.5-76-89.5s-76,29.8-76,89.5l0,31.7l18.1,0l0,52.2
			c0,47.6,18.1,72.6,57.8,72.6s57.8-24.9,57.8-72.6l0-83.9c0-47.6-15.9-72.6-57.8-72.6S68,57.8,68,105.4l0,29.5"/>
	</g>
	
		<polyline display="inline" fill="none" stroke="#000000" stroke-width="0.25" stroke-linecap="round" stroke-linejoin="round" stroke-miterlimit="10" points="
		132.7,168.9 146.3,168.9 146.3,125.9 119.1,125.9 119.1,128.1 144,128.1 144,166.7 132.7,166.7 132.7,164.4 141.7,164.4 
		141.7,130.4 119.1,130.4 119.1,157.6 116.8,157.6 116.8,125.9 114.5,125.9 114.5,159.9 121.3,159.9 121.3,132.7 139.5,132.7 
		139.5,162.1 132.7,162.1 132.7,159.9 137.2,159.9 137.2,134.9 123.6,134.9 123.6,162.1 112.3,162.1 112.3,125.9 110,125.9 
		110,164.4 125.9,164.4 125.9,137.2 134.9,137.2 134.9,157.6 132.7,157.6 132.7,139.5 128.1,139.5 128.1,166.7 107.7,166.7 
		107.7,125.9 105.4,125.9 105.4,168.9 130.4,168.9 130.4,141.7 	"/>
</g>
<g id="Linea_6">
	<polyline fill="none" stroke="#000000" stroke-linecap="round" stroke-linejoin="round" stroke-miterlimit="10" points="
		132.7,139.5 132.7,168.9 105.4,168.9 105.4,125.9 112.3,125.9 112.3,162.1 125.9,162.1 125.9,132.7 139.5,132.7 139.5,168.9 
		146.3,168.9 146.3,125.9 119.1,125.9 119.1,155.3 	"/>
	<g>
		<path fill="none" stroke="#000000" stroke-linecap="round" stroke-linejoin="round" stroke-miterlimit="10" d="M54.4,132.7l0-27.2
			c0-56.7,21.9-85.3,71.4-85.3s71.4,28.6,71.4,85.3l0,83.9c0,56.7-24.5,85.3-71.4,85.3S54.4,246,54.4,189.4l0-36.3l-20.4,0v-47.6
			C34,35.1,64.9,1.1,125.9,1.1s91.8,34,91.8,104.3v83.9c0,70.3-34,104.3-91.8,104.3S34,259.7,34,189.4v-29.5h6.8l0,29.5
			c0,65.8,30.8,98,85,98s85-32.2,85-98l0-83.9c0-65.8-27.9-98-85-98s-85,32.2-85,98l0,40.8l20.4,0l0,43.1
			c0,52.2,21.3,78.9,64.6,78.9s64.6-26.8,64.6-78.9l0-83.9c0-52.2-18.9-78.9-64.6-78.9s-64.6,26.8-64.6,78.9l0,27.2H68l0-27.2
			c0-47.6,15.9-72.6,57.8-72.6s57.8,24.9,57.8,72.6l0,83.9c0,47.6-18.1,72.6-57.8,72.6S68,237,68,189.4l0-49.9l-20.4,0l0-34
			c0-61.2,24.9-91.6,78.2-91.6s78.2,30.4,78.2,91.6l0,83.9c0,61.2-27.7,91.6-78.2,91.6s-78.2-30.4-78.2-91.6l0-29.5"/>
	</g>
</g>
</svg>
