<?xml version="1.0" encoding="utf-8"?>
<!-- Generator: Adobe Illustrator 21.0.0, SVG Export Plug-In . SVG Version: 6.00 Build 0)  -->
<svg version="1.0" xmlns="http://www.w3.org/2000/svg" xmlns:xlink="http://www.w3.org/1999/xlink" x="0px" y="0px"
	 viewBox="0 0 249.4 354.3" enable-background="new 0 0 249.4 354.3" xml:space="preserve">
<g id="Linea_16" display="none">
	
		<polyline display="inline" fill="none" stroke="#000000" stroke-width="0.25" stroke-linecap="round" stroke-linejoin="round" stroke-miterlimit="10" points="
		117.9,30.4 65.8,75.1 65.8,72.4 120.2,25.8 120.2,255.1 47.6,255.1 47.6,289.1 217.7,289.1 217.7,255.1 154.2,255.1 154.2,7.9 
		151.9,7.9 151.9,257.4 215.4,257.4 215.4,286.9 49.9,286.9 49.9,257.4 122.5,257.4 122.5,21.5 122.2,21.5 63.5,71.6 63.5,79.7 
		117.9,33 117.9,35.6 61.2,84.4 61.2,70.9 121.8,19.3 124.7,19.3 124.7,259.7 52.2,259.7 52.2,284.6 213.2,284.6 213.2,259.7 
		149.7,259.7 149.7,7.9 147.4,7.9 147.4,261.9 210.9,261.9 210.9,282.3 54.4,282.3 54.4,261.9 127,261.9 127,17 121.5,17 59,70.1 
		59,89 117.9,38.2 117.9,40.8 56.7,93.7 56.7,69.3 121.1,14.7 129.3,14.7 129.3,264.2 56.7,264.2 56.7,280.1 208.6,280.1 
		208.6,264.2 145.1,264.2 145.1,7.9 142.9,7.9 142.9,266.5 206.4,266.5 206.4,277.8 59,277.8 59,266.5 131.5,266.5 131.5,12.5 
		120.8,12.5 54.4,68.5 54.4,98.4 117.9,43.5 117.9,46.1 52.2,103 52.2,67.7 120.5,10.2 133.8,10.2 133.8,268.7 61.2,268.7 
		61.2,275.5 204.1,275.5 204.1,268.7 140.6,268.7 140.6,7.9 138.3,7.9 138.3,271 201.8,271 201.8,273.3 63.5,273.3 63.5,271 
		136.1,271 136.1,7.9 120.2,7.9 49.9,66.9 49.9,107.7 117.9,48.8 	"/>
</g>
<g id="Linea_6">
	<polyline fill="none" stroke="#000000" stroke-linecap="round" stroke-linejoin="round" stroke-miterlimit="10" points="140.6,7.9 
		140.6,268.7 204.1,268.7 204.1,275.5 61.2,275.5 61.2,268.7 133.8,268.7 133.8,7.9 120.2,7.9 49.9,66.9 49.9,107.7 113.4,52.7 
		113.4,44.8 56.7,93.7 56.7,69.3 121.1,14.7 127,14.7 127,261.9 54.4,261.9 54.4,282.3 210.9,282.3 210.9,261.9 147.4,261.9 
		147.4,7.9 154.2,7.9 154.2,255.1 217.7,255.1 217.7,289.1 47.6,289.1 47.6,255.1 120.2,255.1 120.2,23.2 63.5,71.6 63.5,79.7 
		113.4,36.9 	"/>
</g>
</svg>
