<?xml version="1.0" encoding="utf-8"?>
<!-- Generator: Adobe Illustrator 21.0.0, SVG Export Plug-In . SVG Version: 6.00 Build 0)  -->
<svg version="1.0" xmlns="http://www.w3.org/2000/svg" xmlns:xlink="http://www.w3.org/1999/xlink" x="0px" y="0px"
	 viewBox="0 0 249.4 354.3" enable-background="new 0 0 249.4 354.3" xml:space="preserve">
<g id="Linea_16" display="none">
	<g display="inline">
		
			<path fill="none" stroke="#000000" stroke-width="0.25" stroke-linecap="round" stroke-linejoin="round" stroke-miterlimit="10" d="
			M49.9,289.1v-30.8c0,0,94.3-95.7,109.3-111.8c24.5-25.7,31.3-44.8,31.3-66.1s-11.9-62.4-65.8-62.4C80,18.1,59.5,48.7,53.8,76
			l-2.3,0c5.6-27.8,26.3-60,73.2-60c56.3,0,68,43.1,68,64.6s-6.8,41.3-32.2,67.7C145.5,164.2,68,243,52.2,259.1v30h161v-34H79.8
			l-2.2,2.3h133.3v29.5H54.4v-27c14.8-15.1,92.5-94.1,107.5-110c26.3-27.2,33.1-47.8,33.1-69.4s-11.5-66.7-70.3-66.7
			c-50.4,0-71.1,35.7-75.9,64.4l6.9,0c5-27.3,25.2-58.1,69-58.1c51.3,0,63.5,39.2,63.5,60.3s-6.8,39.5-30.4,64.4
			c-15,16.2-110.2,112.7-110.2,112.7v31.5h-2.3v-32.3c0,0,93.7-94.7,111.1-113.6c22.7-24.2,29.5-41.8,29.5-62.7
			s-12.4-58.2-61.2-58.2c-42.8,0-62.8,30.8-67.1,58.2l-11.4,0c4.1-29.5,24.5-68.8,78.6-68.8c61.3,0,72.6,47,72.6,68.8
			s-6.8,43.1-34,71.1c-15,15.7-92.9,95.1-106.6,109v24h151.9v-24.9H75.4l-2.2,2.3h133.1v20.4H59v-21
			c12.3-12.6,90.6-92.5,105.7-108.1c28.1-28.7,34.9-50.7,34.9-72.7s-11-70.9-74.8-70.9C67,9.6,46.9,52.7,43.6,82.8l16,0
			c3.6-27.6,23.5-58.4,65.2-58.4c46.3,0,59,35.3,59,56.1s-6.8,37.6-28.6,61.1c-17.5,19.2-112,114.5-112,114.5v33.1h-2.3v-33.9
			c0,0,95.2-95.8,112.9-115.3c20.9-22.7,27.7-38.8,27.7-59.4s-12.9-54-56.7-54c-40.5,0-60.4,30.6-63.2,58.5l-20.5,0
			c2.5-30.4,22.1-77.6,83.6-77.6c66.4,0,77.1,50.9,77.1,73s-6.8,44.9-35.8,74.4C150.9,170.4,72,251,61.2,262.1v18h142.9v-15.9H71
			l-0.7,0.7v1.5h131.5v11.3H63.5v-15c9-9.2,88.7-90.8,103.9-106.2c29.9-30.2,36.7-53.7,36.7-76S193.6,5.4,124.7,5.4
			c-65.5,0-84.3,51.5-86,81.9l25,0c1.9-28.3,21.9-58.7,61.1-58.7c41.3,0,54.4,31.4,54.4,51.9s-6.8,35.8-26.8,57.8
			C134.6,158.1,38.6,254.5,38.6,254.5v34.7l-2.3,0v-35.5c0,0,96.7-97,114.7-117.1c19-21.2,25.9-35.8,25.9-56.1s-13.4-49.7-52.2-49.7
			c-37.8,0-57.9,30-58.9,58.8l-29.5,0c0.9-30.1,18.8-86.3,88.4-86.3c71.4,0,81.6,54.7,81.6,77.3s-6.8,46.7-37.6,77.7
			c-15.3,15.5-96.5,98.6-103,105.3v12h133.8v-6.8H70.3v2.3h127v2.3H68v-9c0,0,86.2-88.5,102-104.3c31.7-31.7,38.6-56.7,38.6-79.4
			s-10-79.4-83.9-79.4S34,62.4,34,91.8h34c0-29.5,20.4-59,56.7-59s49.9,27.5,49.9,47.6s-6.8,34-24.9,54.4S34,252.9,34,252.9v36.3"/>
	</g>
</g>
<g id="Linea_6">
	<g>
		<path fill="none" stroke="#000000" stroke-linecap="round" stroke-linejoin="round" stroke-miterlimit="10" d="M47.6,289.1v-31.5
			c0,0,95.2-96.5,110.2-112.7c23.6-24.9,30.4-43.3,30.4-64.4S176,20.2,124.7,20.2c-43.8,0-64,30.7-69,58.1l-6.9,0
			c4.9-28.8,25.5-64.4,75.9-64.4c58.8,0,70.3,45,70.3,66.7s-6.8,42.2-33.1,69.4c-15,15.8-92.7,94.9-107.5,110v29.3h158.7v-34H85.7
			l-6.6,6.8h127.2v20.4H61.2v-20.3C72,251,150.9,170.4,166,154.9c29-29.5,35.8-52.2,35.8-74.4s-10.7-73-77.1-73
			C63.2,7.5,43.6,54.7,41.1,85l20.5,0c2.8-27.9,22.7-58.5,63.2-58.5c43.8,0,56.7,33.4,56.7,54s-6.8,36.7-27.7,59.4
			C136.1,159.4,40.8,255.3,40.8,255.3v33.9l-6.8,0v-36.3c0,0,97.5-97.5,115.7-117.9s24.9-34.3,24.9-54.4S161,32.9,124.7,32.9
			S68,62.4,68,91.8H34c0-29.5,16.8-90.7,90.7-90.7s83.9,56.7,83.9,79.4s-6.8,47.6-38.6,79.4C154.2,175.7,68,264.2,68,264.2v12.2
			l131.5-0.9v-6.8H74.8"/>
	</g>
</g>
</svg>
