<?xml version="1.0" encoding="utf-8"?>
<!-- Generator: Adobe Illustrator 21.0.0, SVG Export Plug-In . SVG Version: 6.00 Build 0)  -->
<svg version="1.0" xmlns="http://www.w3.org/2000/svg" xmlns:xlink="http://www.w3.org/1999/xlink" x="0px" y="0px"
	 viewBox="0 0 249.4 354.3" enable-background="new 0 0 249.4 354.3" xml:space="preserve">
<g id="Linea_16" display="none">
	
		<path display="inline" fill="none" stroke="#000000" stroke-width="0.25" stroke-linecap="round" stroke-linejoin="round" stroke-miterlimit="10" d="
		M102,145.1h27.2c34.6,0,68,25.5,68,63.6c0,33.7-19.4,68-71.4,68c-43.3,0-64.1-30.5-69.8-57.9l-2.3,0c5.7,27.7,26.5,60,71.9,60
		c54.6,0,73.8-36,73.8-70.3c0-39-34.6-65.6-70.3-65.6H102v-14.8h27.2c26.9,0,47.6-17.6,47.6-49.9s-25.1-45.4-53.4-45.4
		s-53.2,20.4-53.2,59h-34c0-41.2,25-90.7,88.4-90.7s86.2,37.7,86.2,79.4c0,24.5-9.8,47.7-28.8,62.6l-1.9-1.3
		c18.7-14.4,28.4-37.1,28.4-61.4c0-41-22.9-77.1-84-77.1c-60,0-85.2,45.9-86.1,86.3l29.5,0c1-37.3,25.4-58.8,55.5-58.8
		c30.6,0,55.6,14.7,55.6,47.6s-21.2,51.9-49.9,51.9h-24.9v10.6h24.9c36.7,0,72.6,27.7,72.6,67.6c0,34.9-19,72.6-76.2,72.6
		c-48.8,0-69.5-36.1-74.5-64.4l6.8,0c5.1,27.8,25.8,58.1,68.1,58.1c49.4,0,68.9-32.7,68.9-65.8c0-37.2-32.2-61.7-65.8-61.7H102v2.1
		h27.2c32.5,0,63.5,23.4,63.5,59.7c0,32.5-19.7,63.5-66.5,63.5c-41.3,0-62-29.9-66.4-58.2l-11.3,0c4.2,28.7,24.6,68.8,77,68.8
		c59.7,0,78.6-39.3,78.6-74.8c0-40.8-37-69.5-74.8-69.5h-22.7v-6.3h22.7c30.4,0,52.2-20.3,52.2-53.8s-24.8-49.9-57.8-49.9
		c-31.7,0-55.9,22.4-57.7,58.7l-25,0C42.7,47.7,68,5.4,124.6,5.4c58.7,0,81.8,34.4,81.8,74.8c0,24.1-9.7,46.3-28.2,60.3l-2-1.2
		c18.2-13.5,27.9-35.2,27.9-59.2c0-39.8-23.2-72.6-79.6-72.6C71.2,7.5,46,46.5,43.3,85l20.4,0c2.7-35.3,26.7-58.5,60-58.5
		c35.3,0,60,18,60,52.2s-22.3,55.8-54.4,55.8h-20.4l0,2.1h20.4c38.9,0,77.1,29.8,77.1,71.5c0,36.1-18.7,77.1-81,77.1
		c-56,0-75.9-44.3-79.4-73.2l15.9,0c3.6,29,24.5,58.4,64.6,58.4c44.3,0,64.1-29.3,64.1-61.2c0-35.4-29.8-57.8-61.2-57.8H102v2.1
		h27.2c30.4,0,59,21.3,59,55.8c0,31.3-20,59-61.7,59c-38.8,0-59.9-28.6-62.7-58.5l-20.4,0c2.7,28.6,22,77.6,81.8,77.6
		c64.9,0,83.5-42.6,83.5-79.4c0-38.2-31.6-66.9-66.9-72.5l0,0c26.9-5,44.2-26.3,44.2-56.6c0-34.8-24.5-54.4-62.2-54.4
		c-34.7,0-58.6,23.9-62.1,58.4l-15.9,0c3.5-37.4,28.6-73.2,78.6-73.2c54.1,0,77.4,31.1,77.4,70.3c0,23.8-9.7,45.1-27.8,58.1
		l-2.2-1.2c17.9-12.5,27.7-33.4,27.7-57.1c0-38.5-23.5-68-75.3-68c-46.9,0-71.7,32.7-76,68.8l11.4,0c4.3-33.7,28.1-58.2,64.2-58.2
		c40,0,64.3,21.3,64.3,56.7c0,27.6-14.1,48.5-37.3,56.3l0,0c32.5,8.8,59.9,36.7,59.9,72.5c0,37.3-18.4,81.6-85.9,81.6
		c-63.8,0-82.2-54-84.1-81.9l24.9,0c1.9,31,23.4,58.7,60.8,58.7c39.2,0,59.3-26,59.3-56.7c0-33.6-27.4-53.8-56.7-53.8H102v2.1h27.2
		c28.3,0,54.4,19.2,54.4,51.9c0,30.1-20.3,54.4-56.8,54.4c-35.8,0-57.8-26.4-58.8-58.8l-29.5,0c0.9,26.8,18.3,86.3,86.3,86.3
		c70,0,88.3-46,88.3-83.9c0-34.4-25-61.8-55.8-72.6l0,0c20.8-9.5,33.1-30,33.1-55.9c0-36.1-24.2-59-66.5-59
		c-37.4,0-61.2,25-66.3,58.1l-6.8,0c5-34.7,29.6-64.4,73.4-64.4c49.4,0,73.1,27.8,73.1,65.8c0,23.7-9.9,44.1-27.6,56.1l-2.3-1.1
		C185,123.1,195,103.1,195,79.4c0-37.3-23.9-63.5-70.9-63.5c-40.7,0-64.8,26.9-70.6,60l2.3,0c5.8-32.5,29.6-57.9,68.2-57.9
		c44.7,0,68.7,24.5,68.7,61.2c0,23.7-10.1,43.3-27.9,54.3c-0.7,0.4-1.5,0.9-2.2,1.3l0,0c29.5,12.1,52.8,39.3,52.8,72.6
		c0,38.6-18.1,86.2-90.7,86.2S36.3,227.9,36.3,203h34c0,34,22.7,59,56.7,59s54.4-22.7,54.4-52.2c0-31.7-24.9-49.9-52.2-49.9H102"/>
</g>
<g id="Linea_6">
	<path fill="none" stroke="#000000" stroke-linecap="round" stroke-linejoin="round" stroke-miterlimit="10" d="M173.5,132.9
		c15.4-12.3,23.8-31.4,23.8-53.3c0-37.9-23.7-65.8-73.1-65.8c-43.7,0-68.3,29.7-73.4,64.4l6.8,0c5.1-33.1,28.9-58.1,66.3-58.1
		c42.4,0,66.5,22.9,66.5,59c0,24.8-11.3,44.7-30.6,54.7c0.9,0.3,1.8,0.7,2.7,1l0,0c29.5,12.1,52.8,39.3,52.8,72.6
		c0,38.6-18.1,86.2-90.7,86.2S36.3,227.9,36.3,203h34c0,34,22.7,59,56.7,59s54.4-22.7,54.4-52.2c0-31.7-24.9-49.9-52.2-49.9H102
		v-31.7h6.8v25.4h20.4c30.4,0,59,21.3,59,55.8c0,31.3-20,59-61.7,59c-38.8,0-59.9-28.6-62.7-58.5l-20.4,0
		c2.7,28.6,22,77.6,81.8,77.6c64.9,0,83.5-42.6,83.5-79.4c0-38.2-31.6-66.9-66.9-72.5l0,0c-4-0.6-8.5-1-12.5-1
		c32.2,0,54.4-21.6,54.4-55.8s-24.6-52.2-60-52.2c-33.2,0-57.2,23.2-60,58.5l-20.4,0C46,46.5,71.2,7.5,124.5,7.5
		c56.4,0,79.6,32.8,79.6,72.6c0,22.3-8.5,42.8-24.4,56.4c2,1.2,3.9,2.5,5.8,3.8c16.7-14.9,25.4-36.7,25.4-59.7
		c0-41.7-22.7-79.4-86.2-79.4S36.3,50.7,36.3,91.8h34c0-38.6,24.9-59,53.2-59s53.4,13,53.4,45.4s-20.7,49.9-47.6,49.9h-6.8v12.7h6.8
		c36.7,0,72.6,27.7,72.6,67.6c0,34.9-19,72.6-76.2,72.6c-48.8,0-69.5-36.1-74.5-64.4l6.8,0c5.1,27.8,25.8,58.1,68.1,58.1
		c49.4,0,68.9-32.7,68.9-65.8c0-37.2-32.2-61.7-65.8-61.7h-13.6v-19"/>
</g>
</svg>
