<?xml version="1.0" encoding="utf-8"?>
<!-- Generator: Adobe Illustrator 21.0.0, SVG Export Plug-In . SVG Version: 6.00 Build 0)  -->
<svg version="1.0" xmlns="http://www.w3.org/2000/svg" xmlns:xlink="http://www.w3.org/1999/xlink" x="0px" y="0px"
	 viewBox="0 0 249.4 354.3" enable-background="new 0 0 249.4 354.3" xml:space="preserve">
<g id="Linea_16" display="none">
	
		<polyline display="inline" fill="none" stroke="#000000" stroke-width="0.25" stroke-linecap="round" stroke-linejoin="round" stroke-miterlimit="10" points="
		172.3,196.2 172.3,21.5 154.8,21.5 38.6,199.9 38.6,216.6 170.1,216.6 170.1,273.3 172.3,273.3 172.3,216.6 208.6,216.6 
		208.6,214.3 154.2,214.3 154.2,53.3 59,198.4 151.9,198.4 151.9,200.7 55,200.7 156.5,46 156.5,212 210.9,212 210.9,218.8 
		174.6,218.8 174.6,275.5 167.8,275.5 167.8,218.8 36.3,218.8 36.3,199.7 153.8,19.3 174.6,19.3 174.6,196.2 176.9,196.2 176.9,17 
		152.7,17 34,199.5 34,221.1 165.5,221.1 165.5,277.8 176.9,277.8 176.9,221.1 213.2,221.1 213.2,209.8 158.7,209.8 158.7,38.7 
		52.2,201.4 52.2,203 151.9,203 151.9,205.2 49.9,205.2 49.9,201.1 160,32.9 161,32.9 161,207.5 215.4,207.5 215.4,223.4 
		179.1,223.4 179.1,280.1 163.3,280.1 163.3,223.4 31.7,223.4 31.7,199.2 151.7,14.7 179.1,14.7 179.1,196.2 181.4,196.2 
		181.4,12.5 150.6,12.5 29.5,199 29.5,225.6 161,225.6 161,282.3 181.4,282.3 181.4,225.6 217.7,225.6 217.7,205.2 163.3,205.2 
		163.3,30.6 159,30.6 47.6,200.9 47.6,207.5 151.9,207.5 151.9,209.8 45.4,209.8 45.4,200.6 158,28.3 165.5,28.3 165.5,203 220,203 
		220,227.9 183.7,227.9 183.7,284.6 158.7,284.6 158.7,227.9 27.2,227.9 27.2,198.8 149.5,10.2 183.7,10.2 183.7,196.2 186,196.2 
		186,7.9 148.5,7.9 24.9,198.6 24.9,230.2 156.5,230.2 156.5,286.9 186,286.9 186,230.2 222.2,230.2 222.2,200.7 167.8,200.7 
		167.8,26.1 156.9,26.1 43.1,200.4 43.1,212 151.9,212 151.9,214.3 40.8,214.3 40.8,200.2 155.9,23.8 170.1,23.8 170.1,198.4 
		224.5,198.4 224.5,232.4 188.2,232.4 188.2,289.1 154.2,289.1 154.2,232.4 22.7,232.4 22.7,198.4 147.4,5.7 188.2,5.7 188.2,196.2 
			"/>
</g>
<g id="Linea_6">
	<polyline fill="none" stroke="#000000" stroke-linecap="round" stroke-linejoin="round" stroke-miterlimit="10" points="
		174.6,191.6 174.6,19.3 153.8,19.3 36.3,199.7 36.3,218.8 167.8,218.8 167.8,275.5 174.6,275.5 174.6,218.8 210.9,218.8 210.9,212 
		154.2,212 154.2,53.3 59,198.4 147.4,198.4 147.4,205.2 49.9,205.2 49.9,201.1 160,32.9 161,32.9 161,205.2 217.7,205.2 
		217.7,225.6 181.4,225.6 181.4,282.3 161,282.3 161,225.6 29.5,225.6 29.5,199 150.6,12.5 181.4,12.5 181.4,191.6 188.2,191.6 
		188.2,5.7 147.4,5.7 22.7,198.4 22.7,232.4 154.2,232.4 154.2,289.1 188.2,289.1 188.2,232.4 224.5,232.4 224.5,198.4 167.8,198.4 
		167.8,26.1 156.9,26.1 43.1,200.4 43.1,212 147.4,212 	"/>
</g>
</svg>
