<?xml version="1.0" encoding="utf-8"?>
<!-- Generator: Adobe Illustrator 21.0.0, SVG Export Plug-In . SVG Version: 6.00 Build 0)  -->
<svg version="1.0" xmlns="http://www.w3.org/2000/svg" xmlns:xlink="http://www.w3.org/1999/xlink" x="0px" y="0px"
	 viewBox="0 0 249.4 354.3" enable-background="new 0 0 249.4 354.3" xml:space="preserve">
<g id="Linea_16" display="none">
	
		<path display="inline" fill="none" stroke="#000000" stroke-width="0.25" stroke-linecap="round" stroke-linejoin="round" stroke-miterlimit="10" d="
		M59,162.1l3.5-141.7h134.9l0,2.1H64.6l-3.3,139.5h15.9c0,0,18.1-27.2,49.9-27.2s61.2,24.9,61.2,63.5s-29.5,63.5-63.5,63.5
		S68,239.2,68,203H34c0,18.1,11.3,90.7,88.4,90.7s99.8-56.7,99.8-95.2s-18.1-95.2-88.4-95.2c-19.9,0-38,6.1-53.7,16.9l0,2.4
		c15.3-10.9,33.3-17.2,53.3-17.2c67.7,0,86.6,54.6,86.6,93.1s-23.1,93.1-97.4,93.1c-71.6,0-85.4-64.4-86.3-86.3l29.5,0
		c0.9,33.9,22.7,58.8,58.8,58.8c36.9,0,65.9-27.1,65.9-65.6s-28.7-65.6-63-65.6c-27.8,0-45.7,20-51,27.1l-12.8,0l3.1-135.2h132.9
		l0-6.3H60.3l-3.6,143.8h-2.3l3.8-145.9h143.6l0,10.6h-133l-2.9,130.8l9.9,0c7.2-9.1,25.5-26.9,52.1-26.9
		c36.9,0,64.9,29.2,64.9,67.7s-28.6,67.7-68.3,67.7c-38,0-59-26.8-60.8-58.7l-24.9,0c1.7,24.3,17.3,81.9,84,81.9
		c71.4,0,94.9-52.5,94.9-91s-19.7-91-84.8-91c-20,0-37.9,6.6-52.9,17.5l0,2.4c14.6-10.9,32.4-17.8,52.5-17.8c62.6,0,83,50.3,83,88.9
		s-24,88.9-92.5,88.9c-62.3,0-79.2-51.8-81.7-77.6l20.3,0c2.7,30.2,23.1,58.5,62.7,58.5c42.6,0,70.8-31.3,70.8-69.8
		s-27.2-69.8-66.7-69.8c-26,0-44.5,16.3-53.2,26.8c0,0,0,0,0,0l-7,0L70.9,29h133.2l0-14.8h-148l-3.9,148h-2.3L54,12h152.4l0,19H73
		l-2.5,122l4.1,0c9.9-11.5,28.6-26.6,54.2-26.6c42,0,68.5,33.4,68.5,72s-27.7,72-73.2,72c-41.2,0-61.2-29.5-64.6-58.4l-15.8,0
		c3.3,26.6,21.2,73.2,79.4,73.2c65.6,0,90.1-48.2,90.1-86.8S192,111.6,132,111.6c-20.2,0-37.8,7.2-52.1,18.2l0,2.5
		c13.8-10.9,31.3-18.5,51.7-18.5c57.4,0,79.4,46.1,79.4,84.7s-24.9,84.7-87.7,84.7c-54.3,0-72.9-41.8-76.9-68.8l11.3,0
		c4.2,27.9,23.9,58.2,66.4,58.2c48.4,0,75.6-35.5,75.6-74.1s-25.7-74.1-70.3-74.1c-25.3,0-44.3,14.2-55.2,26.5l-1.3,0l2.3-117.6
		h133.5l0-23.3H51.9l-4.2,152.2h-2.3L49.7,7.8h161.2l0,27.5H77.3l-2.1,111.6c11.9-12.4,30.6-24.6,54.6-24.6
		c47.2,0,72.1,37.6,72.1,76.2s-26.8,76.2-78,76.2c-43.7,0-63.3-30.9-68.2-58.1l-6.8,0c4.8,27,24,64.4,74.5,64.4
		c59.9,0,85.3-44,85.3-82.5s-22.7-82.5-77.6-82.5c-20.5,0-37.8,8-51.2,18.9l0,2.5C92.7,126.4,110,118,130.6,118
		c52.3,0,75.7,41.9,75.7,80.4s-25.9,80.4-82.8,80.4c-46.9,0-66.5-33.4-71.9-60l2.3,0c5.5,26.6,25.1,57.9,69.8,57.9
		c54.1,0,80.4-39.8,80.4-78.3s-24.2-78.3-73.9-78.3c-22.1,0-40.1,10.1-52.7,21.8l0,0l1.9-104.5h133.8V5.7H47.6l-4.5,156.5"/>
</g>
<g id="Linea_6">
	<path fill="none" stroke="#000000" stroke-linecap="round" stroke-linejoin="round" stroke-miterlimit="10" d="M56.7,162.1
		l3.6-143.8h139.2l0,6.3H66.7l-3.2,137.4h13.6c0,0,18.1-27.2,49.9-27.2s61.2,24.9,61.2,63.5s-29.5,63.5-63.5,63.5S68,239.2,68,203
		H34c0,18.1,11.3,90.7,88.4,90.7s99.8-56.7,99.8-95.2s-18.1-95.2-88.4-95.2c-18,0-34.6,5-49.2,14l-0.1,7
		c13.7-9.1,29.9-14.6,47.9-14.6c62.6,0,83,50.3,83,88.9s-24,88.9-92.5,88.9c-62.3,0-79.2-51.8-81.7-77.6l20.3,0
		c2.7,30.2,23.1,58.5,62.7,58.5c42.6,0,70.8-31.3,70.8-69.8s-27.2-69.8-66.7-69.8c-26,0-44.5,16.3-53.2,26.8c0,0,0,0,0,0l-4.7,0
		L73,31.1h133.3l0-19H54l-4.1,150.1h-6.8L47.6,5.7h165.5v31.7H79.4l-1.9,107.2c12-11.5,29.8-22.3,52.3-22.3
		c47.2,0,72.1,37.6,72.1,76.2s-26.8,76.2-78,76.2c-43.7,0-63.3-30.9-68.2-58.1l-6.8,0c4.8,27,24,64.4,74.5,64.4
		c59.9,0,85.3-44,85.3-82.5s-22.7-82.5-77.6-82.5c-18.2,0-34,6.3-46.7,15.4"/>
</g>
</svg>
