<?xml version="1.0" encoding="utf-8"?>
<!-- Generator: Adobe Illustrator 21.0.0, SVG Export Plug-In . SVG Version: 6.00 Build 0)  -->
<svg version="1.0" xmlns="http://www.w3.org/2000/svg" xmlns:xlink="http://www.w3.org/1999/xlink" x="0px" y="0px"
	 viewBox="0 0 249.4 354.3" enable-background="new 0 0 249.4 354.3" xml:space="preserve">
<g id="Linea_16" display="none">
	
		<polyline display="inline" fill="none" stroke="#000000" stroke-width="0.25" stroke-linecap="round" stroke-linejoin="round" stroke-miterlimit="10" points="
		179.1,23.8 52.2,23.8 52.2,21.5 181.4,21.5 181.4,30.5 63.5,289.1 102,289.1 215.4,35.1 215.4,5.7 213.2,5.7 213.2,34.8 
		100.5,286.9 67.1,286.9 183.7,30.8 183.7,19.3 49.9,19.3 49.9,26.1 179.1,26.1 179.1,28.3 47.6,28.3 47.6,17 186,17 186,31.1 
		70.7,284.6 98.9,284.6 210.9,34.5 210.9,5.7 208.6,5.7 208.6,34.2 97.4,282.3 74.3,282.3 188.2,31.4 188.2,14.7 45.4,14.7 
		45.4,30.6 179,30.6 178,32.9 43.1,32.9 43.1,12.5 190.5,12.5 190.5,31.7 77.9,280.1 95.8,280.1 206.4,33.9 206.4,5.7 204.1,5.7 
		204.1,33.6 94.3,277.8 81.5,277.8 192.8,32.1 192.8,10.2 40.8,10.2 40.8,35.1 176.9,35.1 175.9,37.4 38.6,37.4 38.6,7.9 195,7.9 
		195,32.4 85.1,275.5 92.8,275.5 201.8,33.3 201.8,5.7 199.6,5.7 199.6,33 91.2,273.3 88.7,273.3 197.3,32.7 197.3,5.7 36.3,5.7 
		36.3,39.7 174.9,39.7 	"/>
</g>
<g id="Linea_6">
	<polyline fill="none" stroke="#000000" stroke-linecap="round" stroke-linejoin="round" stroke-miterlimit="10" points="
		174.6,26.1 49.9,26.1 49.9,19.3 181.4,19.3 181.4,30.5 63.5,289.1 102,289.1 215.4,35.1 215.4,5.7 208.6,5.7 208.6,34.2 
		97.4,282.3 74.3,282.3 188.2,31.4 188.2,12.5 43.1,12.5 43.1,32.9 173.1,32.9 170,39.7 36.3,39.7 36.3,5.7 195,5.7 195,32.4 
		85.1,275.5 92.8,275.5 201.8,33.3 201.8,5.7 	"/>
</g>
</svg>
