<?xml version="1.0" encoding="utf-8"?>
<!-- Generator: Adobe Illustrator 21.0.0, SVG Export Plug-In . SVG Version: 6.00 Build 0)  -->
<svg version="1.0" xmlns="http://www.w3.org/2000/svg" xmlns:xlink="http://www.w3.org/1999/xlink" x="0px" y="0px"
	 viewBox="0 0 249.4 354.3" enable-background="new 0 0 249.4 354.3" xml:space="preserve">
<g id="Linea_16" display="none">
	<g display="inline">
		
			<path fill="none" stroke="#000000" stroke-width="0.25" stroke-linecap="round" stroke-linejoin="round" stroke-miterlimit="10" d="
			M81.3,133.9c-18-11.1-29.1-30.2-29.1-55.6c0-40.6,33.6-62.3,72-62.3s70,21.7,70,62.3c0,42.2-27.3,66.8-69.4,66.8
			c-43.8,0-74.8,25.1-74.8,64.7c0,41,28,67,74.8,67s74-25.9,74-67c0-18.9-7.2-34.8-19.8-46.1c0.7-0.3,1.3-0.7,2-1.1
			c12.7,11.7,19.9,28,19.9,47.2c0,42.2-27.8,69.1-76.2,69.1S47.6,252,47.6,209.8c0-40.6,31.7-66.8,77.1-66.8v-14.8
			c-31.2,0-54.4-17.3-54.4-49.9s28.3-45.4,53.9-45.4s52.7,12.8,52.7,45.4c0,31.8-20,49-49.9,49.9l0,2.1c31.3-0.8,52-19,52-52
			c0-33.6-27.8-47.5-54.9-47.5S68,44.7,68,78.2c0,33,23,51.1,54.4,52l0,10.6c-45.8,0.9-77.1,28-77.1,68.9
			c0,43.5,29.5,71.2,79.4,71.2s78.3-27.7,78.3-71.2c0-20.2-7.9-37.5-21.7-49.7c-2,1.1-4,2.2-6.1,3.2c13.5,11,21.4,27,21.4,46.5
			c0,39.8-26.5,64.9-71.9,64.9s-72.6-25-72.6-64.9c0-38.6,30.4-62.6,72.6-62.6c43.4,0,71.5-25.5,71.5-68.9
			c0-41.6-32.1-64.4-72.1-64.4S49.9,36.6,49.9,78.2c0,25.7,11,45.1,28.9,56.6l-2.4,1.1c-17.9-12-28.8-31.8-28.8-57.7
			c0-42.6,34.9-66.5,76.5-66.5s74.3,23.9,74.3,66.5c0,44.7-28.9,71.1-73.7,71.1c-40.6,0-70.3,22.9-70.3,60.5
			c0,38.6,26.5,62.7,70.3,62.7s69.7-24.1,69.7-62.7c0-20.2-8.7-36.4-23.3-46.9c3.7-1.6,7.2-3.4,10.5-5.4c15,12.7,23.6,31,23.6,52.3
			c0,44.7-29.1,73.3-80.5,73.3s-81.6-28.7-81.6-73.3c0-41.3,30.9-69.3,77.1-71l0-6.5c-31.6-1.6-54.4-20.6-54.4-54
			c0-34.6,29.6-49.6,58.4-49.6s57,15,57,49.6c0,34.2-21.6,53.3-54.2,54.1l0,2.1c34-0.8,56.4-20.8,56.4-56.2
			c0-35.6-28.8-51.7-59.2-51.7S63.5,42.7,63.5,78.2c0,33.8,22.7,53.5,54.4,56l0,2.6c-46.5,2.6-77.1,31.4-77.1,73
			c0,45.9,31,75.4,83.9,75.4s82.7-29.6,82.7-75.4c0-22.4-9.2-41.7-25.5-54.9c-4.7,2.9-9.7,5.5-15.1,7.6c15.8,10,25.5,26.3,25.5,47.3
			c0,37.4-25.2,60.6-67.6,60.6s-68-23.2-68-60.6c0-36.6,29-58.4,68-58.4c46.1,0,75.9-27.3,75.9-73.2c0-43.6-33.1-68.6-76.4-68.6
			s-78.8,25-78.8,68.6c0,26.2,10.8,46.3,28.7,58.8l-2.2,1.1c-18-12.9-28.8-33.4-28.8-59.9c0-44.6,36.2-70.8,81.1-70.8
			s78.6,26.1,78.6,70.8c0,47.1-30.5,75.3-78,75.3c-37.4,0-65.8,20.7-65.8,56.2c0,36.2,24.9,58.5,65.8,58.5s65.4-22.3,65.4-58.5
			c0-21.9-10.9-38.4-28.3-47.7c7.4-2.5,14.1-5.8,20.2-9.8c17.5,13.6,27.5,34,27.5,57.5c0,47.1-30.4,77.6-84.8,77.6
			s-86.2-30.5-86.2-77.6c0-40.2,27.9-69.1,71.3-74.4c-28.8-5-48.7-25-48.7-57.1c0-36.6,31-53.8,62.9-53.8s61.3,17.2,61.3,53.8
			c0,36.6-23.2,57.5-58.5,58.3l0,2.1c36.7-0.9,60.7-22.6,60.7-60.4c0-37.6-29.9-55.9-63.5-55.9S59,40.7,59,78.2
			c0,29.3,16,49,40.4,56.7c-38.9,8.5-63,36.9-63,74.8c0,48.3,32.5,79.7,88.4,79.7s87-31.4,87-79.7c0-24.6-10.6-46.1-29.5-60.1
			c-7.6,5.3-16.3,9.3-25.9,12.1c19.2,8.3,31.8,24.9,31.8,48.1c0,35-24,56.4-63.3,56.4s-63.5-21.4-63.5-56.4
			c0-34.6,27.7-54.1,63.5-54.1c48.9,0,80.2-29.1,80.2-77.4c0-45.6-34.2-72.9-80.7-72.9S40.8,32.6,40.8,78.2
			c0,26.9,10.9,47.8,28.9,61.1l-2.1,1.2c-18.2-13.7-29.1-35-29.1-62.3c0-46.6,37.5-75,85.6-75s82.9,28.4,82.9,75
			c0,49.5-32.1,79.5-82.3,79.5c-34.2,0-61.2,18.4-61.2,52c0,33.8,23.4,54.3,61.2,54.3s61.1-20.5,61.1-54.3
			c0-24.8-14.9-41.5-36.6-48.4c12.6-2.7,23.7-7.6,32.9-14.3c20.2,14.5,31.6,37,31.6,62.7c0,49.5-31.7,81.8-89.1,81.8
			S34,259.3,34,209.8c0-36.6,22-64.8,58.1-75.2c-21.6-9.3-35.4-28.7-35.4-56.4c0-38.6,32.3-58.1,67.5-58.1s65.7,19.5,65.7,58.1
			c0,39.1-24.8,61.7-62.8,62.6l0,2.1c39.4-0.9,65-24.4,65-64.7c0-39.6-31-60.2-67.8-60.2S54.4,38.6,54.4,78.2
			c0,26.4,12.2,45.6,31.8,56c-34.1,11.8-54.5,39.9-54.5,75.6c0,50.7,34,83.9,93,83.9s91.3-33.2,91.3-83.9
			c0-26.9-12.1-50.5-33.8-65.4c-11.5,8.9-26.1,14.6-43.2,16.7l-0.1,0c25.7,4.4,44.7,21.1,44.7,48.7c0,32.6-22.7,52.2-59,52.2
			s-59-19.6-59-52.2s26.4-49.9,59-49.9c51.6,0,84.5-30.9,84.5-81.6c0-47.6-35.3-77.1-85-77.1S36.3,30.6,36.3,78.2
			c0,27.7,11,49.5,29.4,63.6"/>
	</g>
</g>
<g id="Linea_6">
	<path fill="none" stroke="#000000" stroke-linecap="round" stroke-linejoin="round" stroke-miterlimit="10" d="M74.6,132
		c-15.5-11.8-24.8-30.1-24.8-53.8c0-41.6,34.2-64.4,74.3-64.4s72.1,22.8,72.1,64.4c0,43.5-28.1,68.9-71.5,68.9
		c-42.2,0-72.6,24-72.6,62.6c0,39.8,27.2,64.9,72.6,64.9s71.9-25,71.9-64.9c0-17.8-6.6-32.8-18.1-43.6c2-1,4-2.1,5.9-3.2
		c11.9,12,18.6,28.2,18.6,46.8c0,43.5-28.5,71.2-78.3,71.2s-79.4-27.7-79.4-71.2c0-40.9,31.3-68.1,77.1-68.9l0-12.8
		c-30-0.8-52.2-18.1-52.2-49.9c0-32.6,28.3-45.4,53.9-45.4s52.7,12.8,52.7,45.4c0,31-19,48.1-47.6,49.8l0,6.4
		c32.7-1.7,54.1-21.5,54.1-56.1c0-35.6-28.8-51.7-59.2-51.7S63.5,42.7,63.5,78.2c0,33,21.6,52.6,52.2,55.8l0,0.8
		c-2,0.1-3.9,0.3-5.8,0.6c-43.5,5.3-71.3,34.2-71.3,74.4c0,47.1,31.7,77.6,86.2,77.6s84.8-30.5,84.8-77.6c0-22-8.7-41.3-24.2-54.8
		c-5.7,3.9-12,7.2-18.9,9.8c14.7,9.6,23.7,25,23.7,45c0,36.2-24.6,58.5-65.4,58.5S59,246,59,209.8c0-35.6,28.4-56.2,65.8-56.2
		c47.5,0,78-28.2,78-75.3c0-44.6-33.7-70.8-78.6-70.8S43.1,33.6,43.1,78.2c0,24.6,9.3,44,25,57l0,0c-2.1,1.1-4.1,2.3-6,3.6l0,0
		c-16.2-14.1-25.8-34.8-25.8-60.6c0-47.6,38.1-77.1,87.9-77.1s85,29.5,85,77.1c0,50.7-32.9,81.6-84.5,81.6c-32.6,0-59,17.3-59,49.9
		s22.7,52.2,59,52.2s59-19.6,59-52.2c0-23.9-14.2-39.6-34.7-46.3c14.3-2.9,26.7-8.6,36.7-16.6c19.5,14.9,30.3,37.5,30.3,62.8
		c0,50.7-32.3,83.9-91.3,83.9s-93-33.2-93-83.9c0-35.7,20.4-63.8,54.5-75.6c1-0.3,2-0.6,3-0.9c-20-9.7-32.6-28.6-32.6-55
		c0-38.6,32.3-58.1,67.5-58.1s65.7,19.5,65.7,58.1c0,38.3-23.8,60.8-60.5,62.5"/>
</g>
</svg>
