<?xml version="1.0" encoding="utf-8"?>
<!-- Generator: Adobe Illustrator 21.0.0, SVG Export Plug-In . SVG Version: 6.00 Build 0)  -->
<svg version="1.0" xmlns="http://www.w3.org/2000/svg" xmlns:xlink="http://www.w3.org/1999/xlink" x="0px" y="0px"
	 viewBox="0 0 249.4 354.3" enable-background="new 0 0 249.4 354.3" xml:space="preserve">
<g id="Linea_16" display="none">
	
		<path display="inline" fill="none" stroke="#000000" stroke-width="0.25" stroke-linecap="round" stroke-linejoin="round" stroke-miterlimit="10" d="
		M179.1,98.6c0-31.7-13.6-65.8-56.7-65.8S65.8,69.2,65.8,96.4s15.9,59,56.7,59c39.8,0,55.9-25.8,56.7-54.4l15.9,0c0,0,0,73.9,0,93.7
		c0,20.6-3.3,82.1-69.6,82.1c-49,0-65.6-30.8-70.9-51.1l-2.4,0c5.3,21.1,22.3,53.2,73.4,53.2c68.1,0,71.8-63.2,71.8-83.5
		s0-99.2,0-99.2c0-52.3-34.2-80.3-74.8-80.3S47.6,46.2,47.6,96.4c0,47.8,34,75.9,74.8,75.9c21.3,0,40.7-7.7,54.4-21.9l0,2.9
		c-14.2,13.7-33.7,21.1-54.4,21.1c-40.8,0-77.1-27.7-77.1-78c0-53.1,36.7-82.5,77.1-82.5s77.1,27.2,77.1,82.1c0,0,0,80.3,0,100.2
		s-4.2,84.8-74,84.8c-55,0-71.7-35.8-76.3-57.6l7.1,0c4.7,19.5,20.2,51.2,69,51.2c64.7,0,67.5-59.9,67.5-80.7c0-20,0-90.7,0-90.7
		h-11.5c-1.8,29.6-20.1,54.3-58.8,54.3c-40.8,0-59-31.3-59-61.1c0-30.1,16.2-65.6,59-65.6s59,33.3,59,67.6v0.3h2.3V98
		c0-36.9-18.7-69.4-61.2-69.4S61.2,63.4,61.2,96.4c0,32.4,20.4,63.2,61.2,63.2c37.8,0,58.1-23.6,60.9-54.1h7.1c0,0,0,67.5,0,87.7
		c0,21.2-2.3,79.4-65.3,79.4c-48.6,0-63-32.9-67-51.4H46.5c3.9,22.4,20.2,62,79.2,62c71.5,0,76.2-66.5,76.2-86.2s0-101.3,0-101.3
		c0-57.4-39.3-83.9-79.4-83.9S43.1,40.4,43.1,96.4c0,52.9,38.6,80.1,79.4,80.1c20.1,0,39.7-7,54.4-20.4l0,2.7
		c-15.1,13-34.8,19.7-54.4,19.7c-40.8,0-81.6-26.8-81.6-82.2c0-58.8,41.9-86.8,81.6-86.8s81.6,25.7,81.6,85.7c0,0,0,83,0,102.3
		s-5.2,87.5-78.3,87.5c-63,0-78.8-43.6-82-66.4l16.3,0c3.4,17.2,16.5,51.6,65.1,51.6c61.2,0,63.1-56.5,63.1-78c0-20.3,0-63.1,0-84.7
		l-2.9,0c-3.8,31.3-25.9,54-62.9,54c-40.8,0-63.5-30.4-63.5-65.3c0-35.8,21.3-69.8,63.5-69.8S186,58.3,186,97.7v0.9h2.3v-1.2
		c0-42-23.9-73-65.8-73s-65.8,33.3-65.8,72c0,37.5,24.9,67.4,65.8,67.4c33.6,0,56.5-18.9,63.5-47.1c0,0,0,54.7,0,74.9
		c0,21.8-1.4,76.6-60.9,76.6c-48.7,0-60.4-36.1-63-51.7l-20.8,0c2.4,22.9,17.5,70.7,84.7,70.7c74.9,0,80.5-69.8,80.5-88.9
		s0-103.4,0-103.4c0-62.6-44.4-87.5-83.9-87.5S38.6,34.7,38.6,96.4c0,58.1,43.1,84.4,83.9,84.4c19.2,0,38.9-6.4,54.4-19.2l0,2.6
		c-15.9,12.4-35.6,18.6-54.4,18.6c-40.8,0-86.2-25.9-86.2-86.5c0-64.6,47-91,86.2-91s86.2,24.2,86.2,89.3c0,0,0,85.7,0,104.5
		s-6.1,90.3-82.7,90.3c-71.4,0-85.6-52.1-87.2-75.1l25.2,0c1.9,13.5,12,51.9,61,51.9c57.8,0,58.8-53.2,58.8-75.3
		c0-20.1,0-61.2,0-61.2c-10.5,22.4-32.5,36.3-61.2,36.3c-40.8,0-68-29.5-68-69.5c0-41.6,26.5-74.1,68-74.1s68,30.2,68,74.8v1.5h2.3
		v-1.8c0-47.2-29-76.6-70.3-76.6S52.2,51.9,52.2,96.4c0,42.6,29.5,71.7,70.3,71.7c25.6,0,46.8-11.1,59-30c0,0,0,32.2,0,52
		c0,22.4-0.5,73.9-56.6,73.9c-49.9,0-57.7-41.7-58.9-52l-29.6,0c0.8,22.9,14.1,79.5,89.7,79.5c78.3,0,84.9-73.2,84.9-91.6
		s0-105.5,0-105.5c0-67.7-49.6-91.2-88.4-91.2S34,29,34,96.4c0,63.2,47.6,88.6,88.4,88.6c18.4,0,38.2-6,54.4-18.2l0,2.6
		c-16.5,11.9-36.4,17.7-54.4,17.7c-40.8,0-90.7-24.9-90.7-90.7c0-70.3,52.2-95.2,90.7-95.2s90.7,22.7,90.7,93c0,0,0,88.4,0,106.6
		s-7,93-87,93S34,232.4,34,209.8h34c0,0,2.3,52.2,56.7,52.2s54.4-49.9,54.4-72.6c0-14.5,0-44.6,0-44.6
		c-13.2,16.2-33.5,25.4-56.7,25.4c-40.8,0-72.6-28.6-72.6-73.8c0-47.3,31.6-78.3,72.6-78.3S195,46.8,195,96.5v2.1"/>
</g>
<g id="Linea_6">
	<path fill="none" stroke="#000000" stroke-linecap="round" stroke-linejoin="round" stroke-miterlimit="10" d="M192.7,94.1
		c-1.1-45.6-29.8-73.9-70.3-73.9c-41.3,0-70.3,31.7-70.3,76.2c0,42.6,29.5,71.7,70.3,71.7c24.1,0,44.2-9.8,56.7-26.7
		c0,0,0,33.4,0,48c0,22.7,0,72.6-54.4,72.6S68,209.8,68,209.8H34c0,22.7,12.1,83.9,92.1,83.9s87-74.8,87-93s0-106.6,0-106.6
		c0-70.3-52.2-93-90.7-93S31.7,26.1,31.7,96.4c0,65.8,49.9,90.7,90.7,90.7c16.4,0,34.4-4.8,49.9-14.6l0-7.4
		c-14.7,10.4-32.5,15.7-49.9,15.7c-40.8,0-83.9-26.3-83.9-84.4c0-61.7,44.4-88.9,83.9-88.9s83.9,24.9,83.9,87.5c0,0,0,84.4,0,103.4
		s-5.6,88.9-80.5,88.9c-67.2,0-82.3-47.8-84.7-70.7l20.8,0c2.7,15.6,14.4,51.7,63,51.7c59.5,0,60.9-54.9,60.9-76.6
		c0-20.3,0-83.9,0-83.9l-0.6,0c-3.8,31.3-25.9,54-62.9,54c-40.8,0-63.5-30.4-63.5-65.3c0-35.8,21.3-69.8,63.5-69.8
		c40.9,0,62.2,29.8,63.4,67.6l-6.8,0c-1.3-30.4-15.6-61.2-56.6-61.2c-43.1,0-56.7,36.3-56.7,63.5s15.9,59,56.7,59
		c39.8,0,55.9-25.8,56.7-54.4l13.6,0c0,0,0,72.9,0,93c0,20.9-2.8,80.7-67.5,80.7c-48.8,0-64.3-31.8-69-51.2l-7.1,0
		c4.6,21.8,21.4,57.6,76.3,57.6c69.8,0,74-64.9,74-84.8s0-100.2,0-100.2c0-54.9-36.7-82.1-77.1-82.1S45.4,43.3,45.4,96.4
		c0,50.3,36.3,78,77.1,78c18.6,0,36.2-5.9,49.9-17"/>
</g>
</svg>
