<?xml version="1.0" encoding="utf-8"?>
<!-- Generator: Adobe Illustrator 21.0.0, SVG Export Plug-In . SVG Version: 6.00 Build 0)  -->
<svg version="1.0" xmlns="http://www.w3.org/2000/svg" xmlns:xlink="http://www.w3.org/1999/xlink" x="0px" y="0px"
	 viewBox="0 0 249.4 354.3" enable-background="new 0 0 249.4 354.3" xml:space="preserve">
<g id="Linea_16" display="none">
	
		<polyline display="inline" fill="none" stroke="#000000" stroke-width="0.25" stroke-linecap="round" stroke-linejoin="round" stroke-miterlimit="10" points="
		142,286.9 151.9,243.8 113.4,243.8 101.9,305 121.1,305 114.4,336.8 112.2,336.8 118.2,307.3 115.8,307.3 109.4,339 116.3,339 
		124,302.7 104.7,302.7 115.5,246 148.9,246 139.6,286.9 137.2,286.9 145.8,248.3 117.7,248.3 107.6,300.5 126.9,300.5 118.1,341.3 
		106.6,341.3 113.4,307.3 111.1,307.3 103.8,343.6 119.9,343.6 129.8,298.2 110.4,298.2 119.8,250.6 142.7,250.6 134.7,286.9 
		132.3,286.9 139.7,252.9 121.9,252.9 113.3,295.9 132.7,295.9 121.7,345.8 101.1,345.8 108.7,307.3 106.3,307.3 98.4,348.1 
		123.5,348.1 135.6,293.7 116.2,293.7 124,255.1 136.6,255.1 129.8,286.9 127.4,286.9 133.6,257.4 126,257.4 119.1,291.4 
		138.6,291.4 125.2,350.4 95.7,350.4 103.9,307.3 101.5,307.3 93,352.6 127,352.6 141.5,289.1 122,289.1 128.1,259.7 130.6,259.7 
		124.9,286.9 	"/>
	
		<polyline display="inline" fill="none" stroke="#000000" stroke-width="0.25" stroke-linecap="round" stroke-linejoin="round" stroke-miterlimit="10" points="
		136.1,153.1 149.7,153.1 149.7,110 122.5,110 122.5,112.3 147.4,112.3 147.4,150.8 136.1,150.8 136.1,148.5 145.1,148.5 
		145.1,114.5 122.5,114.5 122.5,141.7 120.2,141.7 120.2,110 117.9,110 117.9,144 124.7,144 124.7,116.8 142.9,116.8 142.9,146.3 
		136.1,146.3 136.1,144 140.6,144 140.6,119.1 127,119.1 127,146.3 115.7,146.3 115.7,110 113.4,110 113.4,148.5 129.3,148.5 
		129.3,121.3 138.3,121.3 138.3,141.7 136.1,141.7 136.1,123.6 131.5,123.6 131.5,150.8 111.1,150.8 111.1,110 108.9,110 
		108.9,153.1 133.8,153.1 133.8,125.9 	"/>
</g>
<g id="Linea_6">
	<polyline fill="none" stroke="#000000" stroke-linecap="round" stroke-linejoin="round" stroke-miterlimit="10" points="
		133.8,123.6 133.8,153.1 106.6,153.1 106.6,110 113.4,110 113.4,146.3 127,146.3 127,116.8 140.6,116.8 140.6,153.1 147.4,153.1 
		147.4,110 120.2,110 120.2,139.5 	"/>
	<polyline fill="none" stroke="#000000" stroke-linecap="round" stroke-linejoin="round" stroke-miterlimit="10" points="
		128.3,282.3 133.6,257.4 126,257.4 119.5,289.1 141.5,289.1 127,352.6 93,352.6 101.1,309.5 108.2,309.5 101.1,345.8 121.7,345.8 
		132.7,295.9 110.9,295.9 119.8,250.6 142.7,250.6 135.7,282.3 143.1,282.3 151.9,243.8 113.4,243.8 102.3,302.7 124,302.7 
		116.3,339 109.4,339 115.4,309.5 	"/>
</g>
</svg>
