<?xml version="1.0" encoding="utf-8"?>
<!-- Generator: Adobe Illustrator 21.0.0, SVG Export Plug-In . SVG Version: 6.00 Build 0)  -->
<svg version="1.0" xmlns="http://www.w3.org/2000/svg" xmlns:xlink="http://www.w3.org/1999/xlink" x="0px" y="0px"
	 viewBox="0 0 249.4 354.3" enable-background="new 0 0 249.4 354.3" xml:space="preserve">
<g id="Linea_16" display="none">
	<g display="inline">
		
			<path fill="none" stroke="#000000" stroke-width="0.25" stroke-linecap="round" stroke-linejoin="round" stroke-miterlimit="10" d="
			M124.7,182.6v13.6h-2.3v-15.9c52.7-7,90.7-44.5,90.7-93c0-29.5-18-85.2-83.9-86.2C55.5,0,40.8,62.5,40.8,91.8h36.3
			c0-29.5,15.9-59,52.2-59c34,0,49.9,29.5,49.9,54.4c0,29.5-20.4,63.5-72.6,63.5v2c52.6,0,74.8-34.2,74.8-65.5
			c0-25.2-16-56.5-52.2-56.5c-37.8-0.1-53.8,30-54.5,58.8l-31.4,0c0.7-30.1,16.5-87.4,86-86.3c63.7,0.9,81.6,54.9,81.6,84.1
			c0,50.3-39.3,85.2-90.7,91v20.1h6.8V182l2.3-0.5v19.2h-11.3v-24.3c52-4.9,90.7-39.7,90.7-89c0-28.9-17.8-81.1-79.4-81.9
			c-65.4-0.9-82,51.5-83.5,81.9l26.6,0c1.5-28.3,17.7-58.8,56.9-58.7c38.3,0.1,54.4,33.1,54.4,58.7c0,33.1-24,67.4-77.1,67.4v2
			c53.5,0,79.4-34.5,79.4-69.4c0-25.9-16.3-60.6-56.7-60.8C88.8,26.3,72.4,57.1,70.1,85l-21.8,0c2.2-30.4,19.5-78.4,80.9-77.6
			c59.5,0.8,77.1,51.3,77.1,79.8c0,48.3-38.1,83.1-90.7,87.1V203h15.9V181l2.3-0.5v24.7h-20.4v-32.8c53.3-3,90.7-37.8,90.7-85.1
			c0-28.3-17.5-77-74.8-77.7c-57.6-0.8-75.4,43-78.3,73.2l17,0c2.9-27.7,19.7-58.6,61.3-58.4c42.5,0.3,59,36.7,59,62.9
			c0,36.7-27.7,71.4-81.6,71.4v2c54.4,0,83.9-34.8,83.9-73.3c0-26.5-16.6-64.7-61.2-65C86.5,22,69.3,53,65.8,80.5l-12.1,0
			c3.6-29.6,21.7-69.5,75.6-68.8c55.2,0.7,72.6,47.6,72.6,75.6c0,46.3-36.7,81.1-90.7,83.1v37h24.9V180l2.3-0.5v30.3h-29.5v-41.3
			c54.9-1,90.7-36,90.7-81.2c0-27.7-17.2-72.9-70.3-73.5c-50.4-0.6-68.7,35.5-72.9,64.4l7.3,0c4.2-27.4,21.9-58.4,65.6-58.1
			c46.8,0.4,63.5,40.4,63.5,67.1c0,40.4-31.3,75.3-86.2,75.3v2c55.3,0,88.4-35.1,88.4-77.3c0-27.1-16.9-68.8-65.8-69.2
			C84.5,17.6,66.4,48.6,61.6,76l-2.4,0c4.8-27.9,23.2-60.5,70.1-60c51,0.5,68,44,68,71.4c0,44-34.9,79.2-90.7,79.2V212h34v-33"/>
	</g>
	
		<polyline display="inline" fill="none" stroke="#000000" stroke-width="0.25" stroke-linecap="round" stroke-linejoin="round" stroke-miterlimit="10" points="
		130.4,289.1 144,289.1 144,246 116.8,246 116.8,248.3 141.7,248.3 141.7,286.9 130.4,286.9 130.4,284.6 139.5,284.6 139.5,250.6 
		116.8,250.6 116.8,277.8 114.5,277.8 114.5,246 112.3,246 112.3,280.1 119.1,280.1 119.1,252.9 137.2,252.9 137.2,282.3 
		130.4,282.3 130.4,280.1 134.9,280.1 134.9,255.1 121.3,255.1 121.3,282.3 110,282.3 110,246 107.7,246 107.7,284.6 123.6,284.6 
		123.6,257.4 132.7,257.4 132.7,277.8 130.4,277.8 130.4,259.7 125.9,259.7 125.9,286.9 105.4,286.9 105.4,246 103.2,246 
		103.2,289.1 128.1,289.1 128.1,261.9 	"/>
</g>
<g id="Linea_6">
	<polyline fill="none" stroke="#000000" stroke-linecap="round" stroke-linejoin="round" stroke-miterlimit="10" points="
		130.4,259.7 130.4,289.1 103.2,289.1 103.2,246 110,246 110,282.3 123.6,282.3 123.6,252.9 137.2,252.9 137.2,289.1 144,289.1 
		144,246 116.8,246 116.8,275.5 	"/>
	<path fill="none" stroke="#000000" stroke-linecap="round" stroke-linejoin="round" stroke-miterlimit="10" d="M127,186.2v12.2
		h-6.8l0-17.9c0.8-0.1,1.5-0.2,2.3-0.3h0c52.7-7,90.7-44.5,90.7-93c0-29.5-18-85.2-83.9-86.2C55.5,0,40.8,62.5,40.8,91.8h36.3
		c0-29.5,15.9-59,52.2-59c34,0,49.9,29.5,49.9,54.4c0,29.5-20.4,63.5-72.6,63.5v5.9c53.5,0,79.4-34.5,79.4-69.4
		c0-25.9-16.3-60.6-56.7-60.8C88.8,26.3,72.4,57.1,70.1,85l-21.8,0c2.2-30.4,19.5-78.4,80.9-77.6c59.5,0.8,77.1,51.3,77.1,79.8
		c0,48.3-38.1,83.1-90.7,87.1c-0.8,0.1-1.5,0.1-2.3,0.1v30.7h20.4v-20.4c2.3-0.5,4.6-1.1,6.8-1.7V212h-34l0-43.5c0.8,0,1.5,0,2.3,0
		c54.9-1,90.7-36,90.7-81.2c0-27.7-17.2-72.9-70.3-73.5c-50.4-0.6-68.7,35.5-72.9,64.4l7.3,0c4.2-27.4,21.9-58.4,65.6-58.1
		c46.8,0.4,63.5,40.4,63.5,67.1c0,40.4-31.3,75.3-86.2,75.3"/>
</g>
</svg>
