<?xml version="1.0" encoding="utf-8"?>
<!-- Generator: Adobe Illustrator 21.0.0, SVG Export Plug-In . SVG Version: 6.00 Build 0)  -->
<svg version="1.0" xmlns="http://www.w3.org/2000/svg" xmlns:xlink="http://www.w3.org/1999/xlink" x="0px" y="0px"
	 viewBox="0 0 249.4 354.3" enable-background="new 0 0 249.4 354.3" xml:space="preserve">
<g id="Linea_16" display="none">
	
		<polyline display="inline" fill="none" stroke="#000000" stroke-width="0.25" stroke-linecap="round" stroke-linejoin="round" stroke-miterlimit="10" points="
		84.1,180.3 124.7,51 164.1,180.3 199.6,180.3 145.1,5.7 104.3,5.7 42.6,198.4 188.6,198.4 211.8,273.3 209.4,273.3 186.9,200.7 
		41.9,200.7 13.6,289.1 49.9,289.1 72,218.8 69.6,218.8 48.2,286.9 16.8,286.9 43.6,203 185.3,203 207.6,275.5 214.9,275.5 
		190.3,196.2 45.7,196.2 105.9,7.9 143.6,7.9 196.5,178 165.8,178 124.8,43.6 81.7,180.3 79.4,180.3 124.8,36.1 167.4,175.7 
		193.5,175.7 142,10.2 107.5,10.2 48.9,193.9 192,193.9 218,277.8 205.9,277.8 183.6,205.2 45.2,205.2 19.9,284.6 46.5,284.6 
		67.2,218.8 64.8,218.8 44.8,282.3 23,282.3 46.9,207.5 181.9,207.5 204.2,280.1 221.1,280.1 193.6,191.6 52,191.6 109.1,12.5 
		140.4,12.5 190.4,173.5 169.1,173.5 126.1,32.9 123.5,32.9 77,180.3 74.6,180.3 121.9,30.6 127.7,30.6 170.8,171.2 187.3,171.2 
		138.8,14.7 110.7,14.7 55.1,189.4 195.3,189.4 224.2,282.3 202.5,282.3 180.2,209.8 48.6,209.8 26.2,280.1 43.1,280.1 62.4,218.8 
		60,218.8 41.4,277.8 29.3,277.8 50.2,212 178.5,212 200.7,284.6 227.3,284.6 197,187.1 58.2,187.1 112.3,17 137.2,17 184.2,168.9 
		172.4,168.9 129.3,28.3 120.2,28.3 72.2,180.3 69.9,180.3 118.6,26.1 130.9,26.1 174.1,166.7 181.2,166.7 135.7,19.3 113.9,19.3 
		61.3,184.8 198.7,184.8 230.5,286.9 199,286.9 176.9,214.3 51.9,214.3 32.4,275.5 39.7,275.5 57.6,218.8 55.3,218.8 38,273.3 
		35.6,273.3 53.6,216.6 175.2,216.6 197.3,289.1 233.6,289.1 200.3,182.6 64.4,182.6 115.4,21.5 134.1,21.5 178.1,164.4 
		175.8,164.4 132.5,23.8 117,23.8 67.5,180.3 	"/>
</g>
<g id="Linea_6">
	<polyline fill="none" stroke="#000000" stroke-linecap="round" stroke-linejoin="round" stroke-miterlimit="10" points="
		71.3,175.7 118.6,26.1 130.9,26.1 172.7,162.1 179.8,162.1 135.7,19.3 113.9,19.3 62,182.6 200.3,182.6 233.6,289.1 197.3,289.1 
		175.2,216.6 51.2,216.6 32.4,275.5 39.7,275.5 56.2,223.4 63.4,223.4 44.8,282.3 23,282.3 46.2,209.8 180.2,209.8 202.5,282.3 
		224.2,282.3 195.3,189.4 52.7,189.4 108.9,12.5 140.6,12.5 189,168.9 167.7,168.9 126.1,32.9 123.5,32.9 78.4,175.7 85.5,175.7 
		124.7,51 162.7,175.7 198.2,175.7 145.1,5.7 104.3,5.7 43.4,196.2 190.3,196.2 214.9,275.5 207.6,275.5 185.3,203 41.2,203 
		13.6,289.1 49.9,289.1 70.6,223.4 	"/>
</g>
</svg>
