<?xml version="1.0" encoding="utf-8"?>
<!-- Generator: Adobe Illustrator 21.0.0, SVG Export Plug-In . SVG Version: 6.00 Build 0)  -->
<svg version="1.0" xmlns="http://www.w3.org/2000/svg" xmlns:xlink="http://www.w3.org/1999/xlink" x="0px" y="0px"
	 viewBox="0 0 249.4 354.3" enable-background="new 0 0 249.4 354.3" xml:space="preserve">
<g id="Linea_16" display="none">
	
		<path display="inline" fill="none" stroke="#000000" stroke-width="0.25" stroke-linecap="round" stroke-linejoin="round" stroke-miterlimit="10" d="
		M77.1,123.6V39.7h52.2c31.9,0,56.7,10.5,56.7,43.1c0,34.6-25.9,43.1-54.4,43.1l-73.8,0l0-104.3h72.7c44.4,0,74.8,19.9,74.8,60
		c0,34.5-18.5,53.5-63,60.2c42.1,5,67.5,28.3,67.5,65.8c0,34.7-16.2,66.8-75.9,66.8l-76.2,0V157.6h73.8c33.7,0,59,15.1,59,49.9
		c0,27.7-14.7,49.9-59,49.9l-54.4,0v-97.5h-2.4v99.6l57.1,0c48,0,61.1-25.2,61.1-52c0-35.8-25.3-51.4-61.4-52H55.3v120.9l78.9,0
		c61.1,0,78-32.9,78-68.9c0-32.5-19.2-59-60.3-65.8c41.2-7.1,55.7-30.7,55.7-60.3c0-40.7-30.8-62.1-77.1-62.1H55.3l0,108.8l76.2-0.1
		c30.3,0,56.8-10.1,56.8-45.4c0-34.4-27-45.2-59-45.2H74.7v86.2h-2.4V35.1h57.3c36.4,0,61.2,13.6,61.2,47.3
		c0,35-24.2,46.6-58.3,47.6H52.9V17l77.9,0c62.4,0,79.4,35.3,79.4,64.3c0,25.3-9.7,51.2-50.7,60.5c39.6,9.1,55.2,35.7,55.2,65.8
		c0,37.3-17.5,71.1-80.1,71.1l-81.6,0V153.4h79.6c40,0.7,62.8,20.2,62.8,54.1c0,28.5-14.1,54.1-63.2,54.1l-59.9,0V159.9h-2.4v103.9
		l62.6,0c49.4,0,65.3-25,65.3-56.2c0-38.2-29.1-55.7-64.2-56.2h-83v129.4l84.4,0c64.7,0,82.2-34.8,82.2-73.2
		c0-39.6-25-58.7-50.9-65.8c28.1-6.9,46.4-26.6,46.4-60.6c0-34.6-22.8-66.4-81.6-66.4H50.5v117.5l83,0c40.8-2.5,59.7-18.2,59.7-49.9
		c0-27.4-16.7-49.4-63.5-49.4l-59.9,0v90.7h-2.4v-93h62.4c41.9,0,65.8,17.9,65.8,51.6c0,35.1-22.6,49.2-61.1,52.2H48.1V12.5h83
		c59.1,0,83.9,31.9,83.9,68.5c0,29-13.2,52-42.8,60.8c28.7,9.1,47.3,31,47.3,65.8c0,39.4-18,75.3-84.4,75.3H48.1V149.1h86.5
		c42,1.5,65.6,24.2,65.6,58.4c0,30.8-15.1,58.4-67.4,58.4l-65.3,0v-106H65V268l68,0c54.9,0,69.5-29.3,69.5-60.5
		c0-33.5-23.3-58.7-67.1-60.5H45.7v137.9l89.8,0c68,0,86.5-36.8,86.5-77.4c0-41.7-24.9-59-44.2-65.8c20.3-6.8,39.6-25.3,39.6-60.9
		c0-37-24.8-70.6-86.2-70.6H45.7v126.2h89.9C179.2,132.2,198,115,198,82c0-32.8-22.5-53.7-68-53.7H65v95.2h-2.4V26.1h67.6
		c52.9,0,70.3,26.9,70.3,55.8c0,32.9-18.1,51.5-63.9,56.7H43.1L43.2,7.9h88.1c62.9,0,88.4,34.7,88.4,72.7c0,25.5-10,49.8-36.7,61.1
		c26.9,11.3,41.2,34.5,41.2,65.8c0,41.4-18.6,79.5-88.6,79.5l-92.5,0V144.9h93.3c46.9,2.8,68.5,30.6,68.5,62.6
		c0,34.3-16.7,62.6-71.7,62.6l-70.8,0V159.9h-2.4v112.3l73.5,0c58.5,0,73.8-31.4,73.8-64.7c0-40.4-30.5-61.2-69.9-64.7H40.8l0,146.3
		h95.3c75.1,0,90.7-43,90.7-81.6c0-25.3-9.4-51-38.6-65.8c24-12.6,34-34,34-61.2c0-37.8-25.2-74.8-90.7-74.8H40.8v135h96.7
		c28.5-4.8,65.4-11.9,65.4-59c0-31.1-20.1-57.9-72.6-57.9H60.2v99.8"/>
</g>
<g id="Linea_6">
	<path fill="none" stroke="#000000" stroke-linecap="round" stroke-linejoin="round" stroke-miterlimit="10" d="M62.6,119.1v-93
		h67.6c53.8,0,70.3,27.8,70.3,55.8c0,47-39.5,53.2-63.9,56.7H40.8V5.7h90.7c61.2,0,90.5,32.7,90.7,75c0.1,35.3-17.3,52.4-34,61.1
		c28.2,14.2,38.6,38.8,38.6,65.8c0,52.9-29.1,81.6-90.7,81.6H40.8V144.9h95.7c38.5,1.9,68.5,23.7,68.5,62.6
		c0,41.8-24.7,62.6-71.7,62.6l-70.8,0V164.4h7.3v99.3l62.6,0c35.4,0,65.3-13,65.3-56.2c0-42.6-35.4-56-64.2-56.2H48.1v131.5h87.1
		c52,0,84.4-22.1,84.4-75.3c0-41.9-26.6-59.4-47.3-65.8c13-3.7,42.8-16.6,42.8-60.6c0-40-28.3-68.6-83.9-68.6h-83v119.7l85.5,0
		c33.3-2,59.7-13,59.7-49.9c0-31.1-21.2-49.4-63.5-49.4l-59.9,0v86.2h7.3V39.7h52.2c28.6,0,56.7,8.4,56.7,43.1
		c0,29.4-18.6,43.1-54.4,43.1l-76.2,0l0-106.6h75.3c50.6,0,77.1,24.7,77.1,62.3c0,49.1-40.7,57.3-55.7,60.2
		c21.8,3.2,60.3,18.2,60.3,65.8c0,46.5-27.6,68.9-78,68.9l-78.9,0V157.6h76.2c33.6,0,59,14.9,59,49.9c0,32.3-19.6,49.9-59,49.9
		l-54.4,0v-93"/>
</g>
</svg>
