<?xml version="1.0" encoding="utf-8"?>
<!-- Generator: Adobe Illustrator 21.0.0, SVG Export Plug-In . SVG Version: 6.00 Build 0)  -->
<svg version="1.0" xmlns="http://www.w3.org/2000/svg" xmlns:xlink="http://www.w3.org/1999/xlink" x="0px" y="0px"
	 viewBox="0 0 249.4 354.3" enable-background="new 0 0 249.4 354.3" xml:space="preserve">
<g id="Linea_16" display="none">
	
		<path display="inline" fill="none" stroke="#000000" stroke-width="0.25" stroke-linecap="round" stroke-linejoin="round" stroke-miterlimit="10" d="
		M68,134.9l0-29.5c0-47.6,22.7-70.3,63.5-70.3c31.8,0,54.4,18.1,56.7,58.9l36.3,0c-2.3-54.4-38.5-93-93-93
		c-58.5,0-99.8,34-99.8,104.3v47.6l19.4,0v36.3c0,58.2,32.6,86.2,80.4,86.2c39.3,0,64.4-24.1,71.6-59l2.5,0
		c-7.4,36.6-34,61.2-74.1,61.2c-49.2,0-82.8-28.7-82.8-88.4v-34l-2.4,0v34c0,61.2,34.8,90.7,85.3,90.7c41.7,0,70.1-26.1,77-65.8
		l-7.4,0c-6.5,34.4-30.2,59-69.6,59c-46.5,0-78-27.2-78-83.9v-38.6l-19.4,0l0-45.4c0-68.8,40.1-102,97.4-102l0,0
		c52.2,0,87.3,36.1,90.4,88.4l-31.5,0c-3-40.2-26.3-59-59-59l0,0c-42,0-65.9,23.4-65.9,72.6l0,29.5h-2.4l0-29.5
		c0-50.6,25.2-74.8,68.3-74.8l0,0c33.5,0,57.5,19.4,61.2,59l26.7,0c-4-50.1-37.9-83.9-87.9-83.9l0,0c-56.1,0-94.9,32.5-94.9,99.8
		l0,43.1l19.4,0v40.8c0,55.2,30.4,81.6,75.6,81.6c39.5,0,61.9-25.2,67.5-59l12.3,0c-6.3,42.7-36.6,70.3-79.8,70.3
		c-51.8,0-87.7-30.2-87.7-93v-34l-2.4,0v34c0,64.3,36.9,95.2,90.1,95.2c44.6,0,76.9-29,82.6-74.8l-17.1,0c-4.9,33.1-25.8,59-65.4,59
		c-43.9,0-73.2-25.7-73.2-79.4v-43.1l-19.4,0l0-40.8c0-65.8,37.6-97.5,92.5-97.5l0,0c47.7,0,80.4,31.5,85.2,79.4l-21.8,0
		c-4.5-39-29-59-63.4-59l0,0c-44.3,0-70.8,24.9-70.8,77.1l0,29.5h-2.4l0-29.5c0-53.7,27.7-79.4,73.2-79.4l0,0
		c35.1,0,60.4,20.4,65.5,59l17,0c-5.5-45.6-37.1-74.8-82.6-74.8l0,0c-53.8,0-90.1,31-90.1,95.2l0,38.6l19.4,0v45.4
		c0,52.2,28.2,77.1,70.8,77.1c39.9,0,59.1-26.6,63.3-59l21.9,0c-4.9,49.1-39.3,79.4-85.2,79.4C77,286.9,39,255.1,39,189.4v-34
		l-2.4,0v34c0,67.3,39.1,99.8,94.9,99.8c47.3,0,83.8-31.6,87.9-83.9l-26.7,0c-3.5,31.5-21,59-61.1,59c-41.2,0-68.3-24.2-68.3-74.8
		v-47.6l-19.4,0l0-36.3c0-62.7,35.1-93,87.7-93l0,0c43.2,0,73.6,27,79.8,70.3l-12.2,0c-5.9-38.2-31.7-59-67.7-59l0,0
		c-46.7,0-75.6,26.5-75.6,81.6l0,29.5h-2.4l0-29.5c0-56.7,30.1-83.9,78-83.9l0,0c36.6,0,63,21.2,69.7,59l7.3,0
		c-6.9-40.9-36-65.8-77-65.8l0,0c-51.4,0-85.3,29.5-85.3,90.7l0,34l19.4,0v49.9c0,49.1,26,72.6,65.9,72.6c40.4,0,56.1-28.4,58.9-59
		l31.5,0c-3.2,55.6-41.8,88.4-90.4,88.4c-57.2,0-97.4-33.3-97.4-102v-34h-2.4v34c0,70.3,41.3,104.3,99.8,104.3c49.9,0,90.7-34,93-93
		h-36.3c-2.3,29.5-15.9,59-56.7,59C93,259.7,68,237,68,189.4v-52.2H48.7l0-31.7c0-59.7,32.6-88.4,82.9-88.4l0,0
		c38.8,0,66.7,22.7,74.2,61.2h-2.4c-7.4-37.4-34.4-59-71.7-59l0,0c-49.1,0-80.4,28-80.4,86.2l0,29.5"/>
</g>
<g id="Linea_6">
	<path fill="none" stroke="#000000" stroke-linecap="round" stroke-linejoin="round" stroke-miterlimit="10" d="M53.5,132.7l0-27.2
		c0-56.7,30.1-83.9,78-83.9l0,0c36.6,0,63,21.2,69.7,59l7.3,0c-6.9-40.9-36-65.8-77-65.8l0,0c-51.4,0-85.3,29.5-85.3,90.7l0,34
		l21.8,0v49.9c0,46.1,23.6,70.3,63.5,70.3c40.4,0,54.2-28.8,56.7-59h36.3c-2.8,61-44.9,93-93,93c-57.2,0-99.8-32.8-99.8-104.3v-29.5
		l7.3,0v29.5c0,67.1,39.4,97.5,92.5,97.5c44.6,0,79.8-28.5,85.2-79.4l-21.9,0c-4.6,33.3-23.9,58.9-63.3,59
		c-43.9,0-70.8-26.4-70.8-77.1v-43.1l-21.8,0l0-40.8c0-65.8,37.6-97.5,92.5-97.5l0,0c47.7,0,80.4,31.5,85.2,79.4l-21.8,0
		c-4.5-39-29-59-63.4-59l0,0c-44.3,0-70.8,24.9-70.8,77.1l0,27.2H68l0-27.2c0-47.6,22.7-70.3,63.5-70.3c31.8,0,54.4,18.1,56.7,58.9
		l36.3,0c-2.3-54.4-38.5-93-93-93c-58.5,0-99.8,34-99.8,104.3v47.6l21.8,0v36.3c0,55.4,30.2,83.9,78,83.9c39.3,0,62.8-24.2,69.6-59
		l7.4,0c-7.5,41.3-36.3,65.8-77,65.8c-49.2,0-85.3-28.1-85.3-90.7v-29.5"/>
</g>
</svg>
