<?xml version="1.0" encoding="utf-8"?>
<!-- Generator: Adobe Illustrator 21.0.0, SVG Export Plug-In . SVG Version: 6.00 Build 0)  -->
<svg version="1.0" id="Ebene_3" xmlns="http://www.w3.org/2000/svg" xmlns:xlink="http://www.w3.org/1999/xlink" x="0px" y="0px"
	 viewBox="0 0 249.4 283.5" style="enable-background:new 0 0 249.4 283.5;" xml:space="preserve">
<g>
	<path d="M57.6,256.7c-17.1-17.8-25.6-42-25.6-72.6V99.4c0-30.6,8.5-54.8,25.6-72.6S98.4,0,128.8,0c28.5,0,51.2,7.9,68,23.7
		c16.8,15.8,26.3,37.3,28.4,64.5h-36C186,51,165.9,32.4,128.8,32.4c-19.7,0-34.8,5.7-45.2,17.1C73.2,60.9,68,77.7,68,99.8v84
		c0,22.1,5.2,38.8,15.6,50.3c10.4,11.4,25.5,17.1,45.2,17.1c37.1,0,57.2-18.6,60.4-55.8h36c-2.1,27.2-11.6,48.7-28.4,64.5
		c-16.8,15.8-39.5,23.7-68,23.7C98.4,283.5,74.7,274.5,57.6,256.7z"/>
</g>
</svg>
