<?xml version="1.0" encoding="utf-8"?>
<!-- Generator: Adobe Illustrator 21.0.0, SVG Export Plug-In . SVG Version: 6.00 Build 0)  -->
<svg version="1.0" xmlns="http://www.w3.org/2000/svg" xmlns:xlink="http://www.w3.org/1999/xlink" x="0px" y="0px"
	 viewBox="0 0 249.4 354.3" enable-background="new 0 0 249.4 354.3" xml:space="preserve">
<g id="Linea_16" display="none">
	
		<path display="inline" fill="none" stroke="#000000" stroke-width="0.25" stroke-linecap="round" stroke-linejoin="round" stroke-miterlimit="10" d="
		M51.1,255.1V23.8h73.6c51.6,0,80.4,34.7,80.4,86.2c0,11.3,0,63.5,0,77.1c0,52.9-30.3,85.1-80.4,85.1h-93V5.7h93
		c62.8,0,99.8,43.3,99.8,104.3c0,15.9,0,59,0,77.1c0,45.9-22.7,102-99.8,102h-93l0-2.1h93c66.9,0,97.4-44.8,97.4-99.9
		c0-20.4,0-61.2,0-77.1c0-59.3-35.8-102-97.4-102H34.2v262.1h90.6c51.6,0,78-35.1,78-83c0-15.9,0-63.5,0-77.1
		c0-48.1-25.6-83.9-78-83.9H53.5v229h2.4V28.3h68.8c51.6,0,75.6,35.7,75.6,81.6c0,13.6,0,65.8,0,77.1c0,47.7-26.5,80.9-75.6,80.9
		H36.6V10.2h88.1c56.6,0,94.9,37.3,94.9,99.8c0,11.3,0,68,0,77.1c0,52.9-28.8,97.8-94.9,97.8h-93l0-2.1h93
		c62.1,0,92.5-41.3,92.5-95.7c0-9.1,0-68,0-77.1c0-57-33.4-97.5-92.5-97.5H39v253.4h85.7c47.9,0,73.2-32.7,73.2-78.8
		c0-13.6,0-63.5,0-77.1c0-42.3-20.7-79.4-73.2-79.4H58.4v224.5h2.4V32.9h63.9c38.8,0,70.8,22.3,70.8,77.1c0,11.3,0,63.5,0,77.1
		c0,48.9-28.2,76.6-70.8,76.6H41.4v-249h83.3c51.4,0,90.1,32.9,90.1,95.2c0,13.6,0,70.3,0,77.1c0,53.7-30,93.6-90.1,93.6h-93v-2.1
		h93c53.6,0,87.7-33.7,87.7-91.5c0-11.3,0-63.5,0-77.1c-0.1-55-32.1-93-87.7-93H43.8v244.6h80.9c42.9,0,68.3-28.6,68.3-74.5
		c0-13.6,0-61.2,0-77.1c0-44.3-22.4-74.8-68.3-74.8H63.2v220h2.4V37.4h59.1c45.8,0,65.9,31.1,65.9,72.6c0,15.9,0,63.5,0,77.1
		c0,46.1-25.5,72.4-65.9,72.4H46.3V19.3h78.5c53.1,0,85.3,35.2,85.3,90.7c0,11.3,0,68,0,77.1c0,54.1-30.8,89.3-85.3,89.3h-93l0-2.1
		h93c51.9,0,82.8-33.3,82.8-87.2c0-9.1,0-63.5,0-77.1c0-51.6-28.8-88.4-82.8-88.4h-76v235.8h76c37.1,0,63.5-23.4,63.5-70.3
		c0-15.9,0-65.8,0-77.1c0-39.3-17.9-70.3-63.5-70.3H68v215.4"/>
</g>
<g id="Linea_6">
	<path fill="none" stroke="#000000" stroke-linecap="round" stroke-linejoin="round" stroke-miterlimit="10" d="M53.5,250.6V26.1
		h71.2c52.4,0,78,35.8,78,83.9c0,13.6,0,61.2,0,77.1c0,47.9-26.4,83-78,83h-93V5.7h93c63.5,0,99.8,44.1,99.8,104.3
		c0,15.9,0,56.7,0,77.1c0,51.9-27.4,102-99.8,102h-93v-6.3h93c62.3,0,92.5-41.3,92.5-95.7c0-6.8,0-63.5,0-77.1
		c0-58.8-35-97.5-92.5-97.5H39v251.3h85.7c42.6,0,70.8-27.7,70.8-76.6c0-13.6,0-65.8,0-77.1c0-54.8-32-77.1-70.8-77.1H60.8v217.7H68
		V39.7h56.7c45.6,0,63.5,31,63.5,70.3c0,11.3,0,61.2,0,77.1c0,46.9-26.4,70.3-63.5,70.3H46.3V19.3h78.5c55.9,0,85.3,38.4,85.3,90.7
		c0,13.6,0,68,0,77.1c0,55.5-32.1,89.3-85.3,89.3h-93"/>
</g>
</svg>
