<?xml version="1.0" encoding="utf-8"?>
<!-- Generator: Adobe Illustrator 21.0.0, SVG Export Plug-In . SVG Version: 6.00 Build 0)  -->
<svg version="1.0" xmlns="http://www.w3.org/2000/svg" xmlns:xlink="http://www.w3.org/1999/xlink" x="0px" y="0px"
	 viewBox="0 0 249.4 354.3" enable-background="new 0 0 249.4 354.3" xml:space="preserve">
<g id="Linea_16" display="none">
	
		<polyline display="inline" fill="none" stroke="#000000" stroke-width="0.25" stroke-linecap="round" stroke-linejoin="round" stroke-miterlimit="10" points="
		77.1,123.6 77.1,39.7 220,39.7 220,5.7 40.8,5.7 40.8,141.7 179.1,141.7 179.1,144 40.8,144 40.8,289.1 220,289.1 220,255.1 
		77.1,255.1 77.1,162.1 74.7,162.1 74.7,257.4 217.7,257.4 217.7,286.9 43.2,286.9 43.2,146.3 181.4,146.3 181.4,139.5 43.2,139.5 
		43.2,7.9 217.7,7.9 217.7,37.4 74.7,37.4 74.7,123.6 72.3,123.6 72.3,35.1 215.4,35.1 215.4,10.2 45.7,10.2 45.7,137.2 
		183.7,137.2 183.7,148.5 45.7,148.5 45.7,284.6 215.4,284.6 215.4,259.7 72.3,259.7 72.3,162.1 69.8,162.1 69.8,261.9 213.2,261.9 
		213.2,282.3 48.1,282.3 48.1,150.8 186,150.8 186,134.9 48.1,134.9 48.1,12.5 213.2,12.5 213.2,32.9 69.8,32.9 69.8,123.6 
		67.4,123.6 67.4,30.6 210.9,30.6 210.9,14.7 50.5,14.7 50.5,132.7 188.2,132.7 188.2,153.1 50.5,153.1 50.5,280.1 210.9,280.1 
		210.9,264.2 67.4,264.2 67.4,162.1 65,162.1 65,266.5 208.6,266.5 208.6,277.8 52.9,277.8 52.9,155.3 190.5,155.3 190.5,130.4 
		52.9,130.4 52.9,17 208.6,17 208.6,28.3 65,28.3 65,123.6 62.6,123.6 62.6,26.1 206.4,26.1 206.4,19.3 55.3,19.3 55.3,128.1 
		192.8,128.1 192.8,157.6 55.3,157.6 55.3,275.5 206.4,275.5 206.4,268.7 62.6,268.7 62.6,162.1 60.2,162.1 60.2,271 204.1,271 
		204.1,273.3 57.8,273.3 57.8,159.9 195,159.9 195,125.9 57.8,125.9 57.8,21.5 204.1,21.5 204.1,23.8 60.2,23.8 60.2,123.6 	"/>
</g>
<g id="Linea_6">
	<polyline fill="none" stroke="#000000" stroke-linecap="round" stroke-linejoin="round" stroke-miterlimit="10" points="
		62.6,119.1 62.6,26.1 206.4,26.1 206.4,19.3 55.3,19.3 55.3,125.9 195,125.9 195,159.9 55.3,159.9 55.3,275.5 206.4,275.5 
		206.4,268.7 62.6,268.7 62.6,166.7 69.8,166.7 69.8,261.9 213.2,261.9 213.2,282.3 48.1,282.3 48.1,153.1 188.2,153.1 188.2,132.7 
		48.1,132.7 48.1,12.5 213.2,12.5 213.2,32.9 69.8,32.9 69.8,119.1 77.1,119.1 77.1,39.7 220,39.7 219.9,5.7 40.9,5.7 40.8,139.5 
		181.4,139.5 181.4,146.3 40.8,146.3 40.8,289.1 220,289.1 220,255.1 77.1,255.1 77.1,166.7 	"/>
</g>
</svg>
