<?xml version="1.0" encoding="utf-8"?>
<!-- Generator: Adobe Illustrator 21.0.0, SVG Export Plug-In . SVG Version: 6.00 Build 0)  -->
<svg version="1.0" xmlns="http://www.w3.org/2000/svg" xmlns:xlink="http://www.w3.org/1999/xlink" x="0px" y="0px"
	 viewBox="0 0 249.4 354.3" enable-background="new 0 0 249.4 354.3" xml:space="preserve">
<g id="Linea_16" display="none">
	
		<polyline display="inline" fill="none" stroke="#000000" stroke-width="0.25" stroke-linecap="round" stroke-linejoin="round" stroke-miterlimit="10" points="
		77.1,128.1 77.1,39.7 235.8,39.7 235.8,5.7 40.8,5.7 40.8,146.3 190.5,146.3 190.5,148.5 40.8,148.5 40.8,289.1 77.1,289.1 
		77.1,166.7 74.7,166.7 74.7,286.9 43.2,286.9 43.2,150.8 192.8,150.8 192.8,144 43.2,144 43.2,7.9 233.6,7.9 233.6,37.4 74.7,37.4 
		74.7,128.1 72.3,128.1 72.3,35.1 231.3,35.1 231.3,10.2 45.7,10.2 45.7,141.7 195,141.7 195,153.1 45.7,153.1 45.7,284.6 
		72.3,284.6 72.3,166.7 69.8,166.7 69.8,282.3 48.1,282.3 48.1,155.3 197.3,155.3 197.3,139.5 48.1,139.5 48.1,12.5 229,12.5 
		229,32.9 69.8,32.9 69.8,128.1 67.4,128.1 67.4,30.6 226.8,30.6 226.8,14.7 50.5,14.7 50.5,137.2 199.6,137.2 199.6,157.6 
		50.5,157.6 50.5,280.1 67.4,280.1 67.4,166.7 65,166.7 65,277.8 52.9,277.8 52.9,159.9 201.8,159.9 201.8,134.9 52.9,134.9 
		52.9,17 224.5,17 224.5,28.3 65,28.3 65,128.1 62.6,128.1 62.6,26.1 222.2,26.1 222.2,19.3 55.3,19.3 55.3,132.7 204.1,132.7 
		204.1,162.1 55.3,162.1 55.3,275.5 62.6,275.5 62.6,166.7 60.2,166.7 60.2,273.3 57.8,273.3 57.8,164.4 206.4,164.4 206.4,130.4 
		57.8,130.4 57.8,21.5 220,21.5 220,23.8 60.2,23.8 60.2,128.1 	"/>
</g>
<g id="Linea_6">
	<polyline fill="none" stroke="#000000" stroke-linecap="round" stroke-linejoin="round" stroke-miterlimit="10" points="
		62.6,123.6 62.6,26.1 222.2,26.1 222.2,19.3 55.3,19.3 55.3,130.4 206.4,130.4 206.4,164.4 55.3,164.4 55.3,275.5 62.6,275.5 
		62.6,171.2 69.8,171.2 69.8,282.3 48.1,282.3 48.1,157.6 199.6,157.6 199.6,137.2 48.1,137.2 48.1,12.5 229,12.5 229,32.9 
		69.8,32.9 69.8,123.6 77.1,123.6 77.1,39.7 235.8,39.7 235.8,5.7 40.9,5.7 40.8,144 192.8,144 192.8,150.8 40.8,150.8 40.8,289.1 
		77.1,289.1 77.1,171.2 	"/>
</g>
</svg>
