<?xml version="1.0" encoding="utf-8"?>
<!-- Generator: Adobe Illustrator 21.0.0, SVG Export Plug-In . SVG Version: 6.00 Build 0)  -->
<svg version="1.0" id="Ebene_3" xmlns="http://www.w3.org/2000/svg" xmlns:xlink="http://www.w3.org/1999/xlink" x="0px" y="0px"
	 viewBox="0 0 249.4 283.5" style="enable-background:new 0 0 249.4 283.5;" xml:space="preserve">
<g>
	<path d="M192.8,23.7c16.8,15.8,26.3,37.3,28.4,64.5h-36C182,51,161.9,32.4,124.8,32.4c-19.7,0-34.8,5.7-45.2,17.1
		C69.2,60.9,64,77.7,64,99.8v84c0,22.1,5.2,38.8,15.6,50.3c10.4,11.4,25.5,17.1,45.2,17.1c37.1,0,57.2-18.6,60.4-55.8v-31.2h-64.8
		v-33.1h100.4v147.1h-33.2v-16.9c-14.9,14.9-35.9,22.3-62.8,22.3c-30.4,0-54.1-8.9-71.2-26.8S28,214.7,28,184.1V99.4
		c0-30.6,8.5-54.8,25.6-72.6S94.4,0,124.8,0C153.3,0,176,7.9,192.8,23.7z"/>
</g>
</svg>
