<?xml version="1.0" encoding="utf-8"?>
<!-- Generator: Adobe Illustrator 21.0.0, SVG Export Plug-In . SVG Version: 6.00 Build 0)  -->
<svg version="1.0" xmlns="http://www.w3.org/2000/svg" xmlns:xlink="http://www.w3.org/1999/xlink" x="0px" y="0px"
	 viewBox="0 0 249.4 354.3" enable-background="new 0 0 249.4 354.3" xml:space="preserve">
<g id="Linea_16" display="none">
	<g display="inline">
		
			<path fill="none" stroke="#000000" stroke-width="0.25" stroke-linecap="round" stroke-linejoin="round" stroke-miterlimit="10" d="
			M201.8,173.5v24.9c0,34.6-17.1,77.5-77.1,77.1c-63.2,0-78.2-44.3-78.2-83.9v-86.2c0-39.4,17.6-86.2,78.2-86.2
			c50.2,0,68.9,29.2,74.9,56.7l2.3,0c-6-28.2-25.1-59-77.2-59c-62.5,0-80.6,48.3-80.6,88.4v86.2c0,39.8,15.2,86.2,80.6,86.2
			c61.9,0.4,79.4-43.9,79.4-79.4v-27.2h-83.9v-34H220v2.3h-97.5v29.5h83.9v29.5c0,36.3-17.8,82.1-81.6,81.6c-67.6,0-83-48.5-83-88.4
			v-86.2c0-40.9,18.5-90.7,83-90.7c55.3,0,74.5,34,80,63.5l-6.9,0c-5.4-27.3-23.3-56.7-73-56.7C66.1,21.5,49,66.8,49,105.4v86.2
			c0,39.4,14.7,81.6,75.7,81.6c58.1,0.3,74.8-41.1,74.8-74.8v-24.9h-2.3v25c0,33-16.4,72.8-72.6,72.6c-58.9,0-73.3-40.2-73.3-79.4
			v-86.2c0-37.9,16.7-81.6,73.3-81.6c49.3,0,66.3,29.4,71.2,56.7l11.5,0c-4.9-30.7-24.1-68-82.7-68c-66.5,0-85.4,51.3-85.4,93v86.2
			c0,40.2,15.7,90.7,85.4,90.7c65.8,0.5,83.9-46.8,83.9-83.9v-31.8h-83.9v-24.9H220v2.3h-93v20.4h83.9v34
			c0,37.9-18.4,86.7-86.2,86.2c-71.9,0-87.8-52.6-87.8-93v-86.2c0-42.5,19.4-95.2,87.8-95.2c61.9,0,80.9,40.8,85.3,72.6l-16,0
			c-4.3-27.2-20.4-56.7-69.2-56.7c-54.7,0-70.9,42.2-70.9,79.4v86.2c0,39,14.2,77.1,70.9,77.1c54.2,0.2,70.3-38.2,70.3-70.3v-25
			h-2.3v25c0,31.3-15.7,68.2-68,68c-54.6,0-68.5-36-68.5-74.8v-86.2c0-36.4,15.8-77.1,68.5-77.1c48.3,0,63.5,29.5,67.3,56.7l20.6,0
			C208.8,52.4,190,7.9,124.7,7.9c-70.4,0-90.3,54.3-90.3,97.5v86.2c0,40.5,16.2,95.2,90.3,95.2c69.7,0.6,88.4-49.7,88.4-88.4v-36.3
			h-83.9v-15.9H220v2.3h-88.4v11.3h83.9v38.6c0,39.6-19.1,91.4-90.7,90.7c-76.2,0-92.7-56.8-92.7-97.5v-86.2
			c0-44,20.3-99.8,92.7-99.8c68.7,0,87.2,48.3,90.4,81.6l-25.1,0c-3.3-27.2-17.6-56.7-65.3-56.7c-50.7,0-66.1,39.2-66.1,74.8v86.2
			c0,38.6,13.6,72.6,66.1,72.6c50.4,0.1,65.8-35.3,65.8-65.8v-25h-2.3v25c0,29.6-15.1,63.5-63.5,63.5c-50.3,0-63.6-31.8-63.6-70.3
			v-86.2c0-34.9,14.9-72.6,63.6-72.6c47.1,0,60.5,29.4,63.3,56.7l29.5,0C215.1,55.7,197,3.4,124.7,3.4c-74.3,0-95.1,57.3-95.1,102
			v86.2c0,40.9,16.7,99.8,95.1,99.8c73.5,0.7,93-52.5,93-93v-40.8h-83.9v-6.8H220v2.3h-83.9v2.3H220v43.1c0,41.3-19.8,96-95.2,95.2
			c-80.6,0-97.5-60.9-97.5-102v-86.2c0-45.5,21.2-104.3,97.5-104.3c75.8,0,93.5,56.6,95.2,90.7h-34c-2.3-27.4-14.7-56.7-61.2-56.7
			c-46.8,0-61.2,36.2-61.2,70.3v86.2c0,38.3,13.1,68,61.2,68c46.5,0,61.2-32.4,61.2-61.2v-25"/>
	</g>
</g>
<g id="Linea_6">
	<g>
		<path fill="none" stroke="#000000" stroke-linecap="round" stroke-linejoin="round" stroke-miterlimit="10" d="M199.6,178v20.4
			c0,33.8-16.8,75.1-74.8,74.8C63.6,273.3,49,231,49,191.6v-86.2c0-38.7,17.1-83.9,75.7-83.9c49.8,0,67.6,29.4,73,56.7l6.9,0
			c-5.5-29.5-24.7-63.5-80-63.5c-64.5,0-83,49.8-83,90.7v86.2c0,40,15.4,88.4,83,88.4c63.9,0.5,81.6-45.4,81.6-81.6v-27.2h-86.2v-34
			H220v6.8h-93v20.4h86.2v34c0,38.8-18.8,89.1-88.4,88.4c-74.1,0-90.3-54.7-90.3-95.2v-86.2c0-43.2,19.9-97.5,90.3-97.5
			c65.3,0,84.1,44.5,87.9,77.1L192,85c-3.8-27.2-19-56.7-67.3-56.7C72,28.3,56.2,69,56.2,105.4v86.2c0,38.8,13.9,74.8,68.5,74.8
			c52.3,0.2,68-36.7,68-68V178H186v20.4c0,28.8-14.7,61.2-61.2,61.2c-48.1,0-61.2-29.8-61.2-68v-86.2c0-34.1,14.4-70.3,61.2-70.3
			c46.5,0,58.9,29.3,61.2,56.7h34c-1.8-34.1-19.4-90.7-95.2-90.7c-76.3,0-97.5,58.8-97.5,104.3v86.2c0,41.1,16.9,102,97.5,102
			c75.5,0.8,95.2-54,95.2-95.2v-40.8h-86.2v-6.8H220"/>
	</g>
</g>
</svg>
