<?xml version="1.0" encoding="utf-8"?>
<!-- Generator: Adobe Illustrator 21.0.0, SVG Export Plug-In . SVG Version: 6.00 Build 0)  -->
<svg version="1.0" xmlns="http://www.w3.org/2000/svg" xmlns:xlink="http://www.w3.org/1999/xlink" x="0px" y="0px"
	 viewBox="0 0 249.4 354.3" enable-background="new 0 0 249.4 354.3" xml:space="preserve">
<g id="Linea_16" display="none">
	
		<polyline display="inline" fill="none" stroke="#000000" stroke-width="0.25" stroke-linecap="round" stroke-linejoin="round" stroke-miterlimit="10" points="
		65.9,123.6 65.8,5.7 29.5,5.7 29.5,141.7 198.5,141.7 198.5,21.5 200.9,21.5 200.9,273.3 198.5,273.3 198.5,144 29.5,144 
		29.5,289.1 65.8,289.1 65.9,162.1 63.5,162.1 63.3,286.9 31.9,286.9 31.9,146.3 196,146.3 196,275.5 203.3,275.5 203.3,19.3 
		196,19.3 196,139.5 31.9,139.5 31.9,7.9 63.3,7.9 63.5,123.6 61.1,123.6 60.9,10.2 34.3,10.2 34.3,137.2 193.6,137.2 193.6,17 
		205.8,17 205.8,277.8 193.6,277.8 193.6,148.5 34.3,148.5 34.3,284.6 60.9,284.6 61.1,162.1 58.6,162.1 58.5,282.3 36.7,282.3 
		36.8,150.8 191.2,150.8 191.2,280.1 208.2,280.1 208.2,14.7 191.2,14.7 191.2,134.9 36.8,134.9 36.7,12.5 58.5,12.5 58.6,123.6 
		56.2,123.6 56.1,14.8 39.2,14.8 39.2,132.7 188.7,132.7 188.7,12.5 210.6,12.5 210.6,282.3 188.7,282.3 188.7,153.1 39.2,153.1 
		39.2,280.1 56.1,280.1 56.2,162.1 53.8,162.1 53.7,277.8 41.6,277.8 41.6,155.3 186.3,155.3 186.3,284.6 213.1,284.6 213.1,10.2 
		186.3,10.2 186.3,130.4 41.6,130.4 41.6,17 53.7,17 53.8,123.6 51.4,123.6 51.3,19.3 44,19.3 44.1,128.1 183.9,128.1 183.9,7.9 
		215.5,7.9 215.5,286.9 183.9,286.9 183.9,157.6 44.1,157.6 44,275.5 51.3,275.5 51.4,162.1 48.9,162.1 48.8,273.3 46.4,273.3 
		46.5,159.9 181.4,159.9 181.4,289.1 217.9,289.1 217.9,5.7 181.4,5.7 181.4,125.9 46.5,125.9 46.4,21.6 48.8,21.6 48.9,123.6 	"/>
</g>
<g id="Linea_6">
	<polyline fill="none" stroke="#000000" stroke-linecap="round" stroke-linejoin="round" stroke-miterlimit="10" points="
		51.4,119.1 51.3,19.3 44,19.3 44.1,125.9 181.4,125.9 181.4,5.7 217.9,5.7 217.9,289.1 181.4,289.1 181.4,159.9 44.1,159.9 
		44,275.5 51.3,275.5 51.4,166.7 58.6,166.7 58.5,282.3 36.7,282.3 36.8,153.1 188.7,153.1 188.7,282.3 210.6,282.3 210.6,12.5 
		188.7,12.5 188.7,132.7 36.8,132.7 36.7,12.5 58.5,12.5 58.6,119.1 65.9,119.1 65.8,5.7 29.5,5.7 29.5,139.5 196,139.5 196,19.3 
		203.3,19.3 203.3,275.5 196,275.5 196,146.3 29.5,146.3 29.5,289.1 65.8,289.1 65.9,166.7 	"/>
</g>
</svg>
