<?xml version="1.0" encoding="utf-8"?>
<!-- Generator: Adobe Illustrator 21.0.0, SVG Export Plug-In . SVG Version: 6.00 Build 0)  -->
<svg version="1.0" xmlns="http://www.w3.org/2000/svg" xmlns:xlink="http://www.w3.org/1999/xlink" x="0px" y="0px"
	 viewBox="0 0 249.4 354.3" enable-background="new 0 0 249.4 354.3" xml:space="preserve">
<g id="Linea_16" display="none">
	
		<polyline display="inline" fill="none" stroke="#000000" stroke-width="0.25" stroke-linecap="round" stroke-linejoin="round" stroke-miterlimit="10" points="
		123.5,252.9 123.5,22.6 45.4,22.6 45.4,20.5 206.4,20.5 206.4,22.6 125.9,22.6 125.9,255.1 29.5,255.1 29.5,289.1 222.2,289.1 
		222.2,255.1 145.1,255.1 145.1,257.4 220,257.4 220,286.9 31.7,286.9 31.7,257.4 128.4,257.4 128.4,24.7 208.6,24.7 208.6,18.4 
		43.1,18.4 43.1,24.7 121.1,24.7 121.1,252.9 118.7,252.9 118.7,26.8 40.8,26.8 40.8,16.3 210.9,16.3 210.9,26.8 130.8,26.8 
		130.8,259.7 34,259.7 34,284.6 217.7,284.6 217.7,259.7 145.1,259.7 145.1,261.9 215.4,261.9 215.4,282.3 36.3,282.3 36.3,261.9 
		133.2,261.9 133.2,29 213.2,29 213.2,14.1 38.6,14.1 38.6,29 116.3,29 116.3,252.9 113.8,252.9 113.8,31.1 36.3,31.1 36.3,12 
		215.4,12 215.4,31.1 135.6,31.1 135.6,264.2 38.6,264.2 38.6,280.1 213.2,280.1 213.2,264.2 145.1,264.2 145.1,266.5 210.9,266.5 
		210.9,277.8 40.8,277.8 40.8,266.5 138,266.5 138,33.2 217.7,33.2 217.7,9.9 34,9.9 34,33.2 111.4,33.2 111.4,252.9 109,252.9 
		109,35.3 31.7,35.3 31.7,7.8 220,7.8 220,35.3 140.4,35.3 140.4,268.7 43.1,268.7 43.1,275.5 208.6,275.5 208.6,268.7 145.1,268.7 
		145.1,271 206.4,271 206.4,273.3 45.4,273.3 45.4,271 142.9,271 142.9,37.4 222.2,37.4 222.2,5.7 29.5,5.7 29.5,37.4 106.6,37.4 
		106.6,252.9 	"/>
</g>
<g id="Linea_6">
	<polyline fill="none" stroke="#000000" stroke-linecap="round" stroke-linejoin="round" stroke-miterlimit="10" points="
		121.1,248.3 121.1,24.7 43.1,24.7 43.1,18.4 208.6,18.4 208.6,24.7 128.4,24.7 128.4,255.1 29.5,255.1 29.5,289.1 222.2,289.1 
		222.2,255.1 149.7,255.1 149.7,261.9 215.4,261.9 215.4,282.3 36.3,282.3 36.3,261.9 135.6,261.9 135.6,31.1 215.4,31.1 215.4,12 
		36.3,12 36.3,31.1 113.8,31.1 113.8,248.3 106.6,248.3 106.6,37.4 29.5,37.4 29.5,5.7 222.2,5.7 222.2,37.4 142.9,37.4 
		142.9,268.7 43.1,268.7 43.1,275.5 208.6,275.5 208.6,268.7 149.7,268.7 	"/>
</g>
</svg>
