<?xml version="1.0" encoding="utf-8"?>
<!-- Generator: Adobe Illustrator 21.0.0, SVG Export Plug-In . SVG Version: 6.00 Build 0)  -->
<svg version="1.0" xmlns="http://www.w3.org/2000/svg" xmlns:xlink="http://www.w3.org/1999/xlink" x="0px" y="0px"
	 viewBox="0 0 249.4 354.3" enable-background="new 0 0 249.4 354.3" xml:space="preserve">
<g id="Linea_16" display="none">
	
		<path display="inline" fill="none" stroke="#000000" stroke-width="0.25" stroke-linecap="round" stroke-linejoin="round" stroke-miterlimit="10" d="
		M161,23.8l-88.4,0v-2.3l90.7,0V203c0,45.4-27.2,56.7-52.2,56.7c-21.2,0-49.9-7.2-49.9-56.7H24.9c0,41.5,21.6,90.7,86.2,90.7
		s88.4-43.1,88.4-90.7V5.7h-2.4V203c0,47.5-24.1,88.4-86,88.4c-60.6,0-82.9-44.8-83.7-86.2l31.4,0c0.9,47,28.6,56.7,52.3,56.7
		c27.6,0,54.6-13.5,54.6-59V19.3l-95.4,0v6.8l90.7,0v2.3l-93,0V17l100.1,0v186c0,45.7-26.8,61.2-57,61.2c-26.1,0-53-12-54.6-56.7
		l-26.6,0c1.6,41,24.5,81.6,81.2,81.6c59.3,0,83.6-38.9,83.6-86.2V5.7h-2.4V203c0,47.2-24.5,83.9-81.2,83.9
		c-52.9,0-76.4-36.6-78.7-77.1l21.8,0c2.5,42.6,28.5,56.7,57,56.7c32.9,0,59.4-17.7,59.4-63.5V14.7l-104.8,0v15.9H161v2.3H63.5V12.5
		l109.5,0V203c0,46-26.3,65.8-61.8,65.8c-30.6,0-56-16-59.2-56.7H35c3.1,39.7,26.9,72.6,76.1,72.6c54,0,78.8-34.6,78.8-81.6V5.7
		h-2.4V203c0,46.9-25,79.4-76.3,79.4c-45.7,0-69.7-29.3-73.5-68l12.1,0c4,38.9,28.8,56.7,61.4,56.7c38.2,0,64.3-21.9,64.3-68V10.2
		l-114.1,0v24.9H161v2.3H59V7.9l118.8,0v195c0,46.3-25.9,70.3-66.7,70.3c-34.6,0-58.9-19.3-63.6-56.7l-7.3,0
		c4.6,37.5,28.6,63.5,70.9,63.5c48.7,0,73.9-30.4,73.9-77.1V5.7h-2.4V203c0,46.6-25.4,74.8-71.5,74.8c-38.9,0-62.9-22.8-68.1-59
		l2.4,0c5.3,36,29.3,56.7,65.7,56.7c43.4,0,69.1-26.2,69.1-72.6V5.7H56.7v34H161"/>
</g>
<g id="Linea_6">
	<path fill="none" stroke="#000000" stroke-linecap="round" stroke-linejoin="round" stroke-miterlimit="10" d="M156.5,26.1H70.3
		v-6.8h93V203c0,45.4-27.2,56.7-52.2,56.7c-21.2,0-49.9-7.2-49.9-56.7H24.9c0,41.5,21.6,90.7,86.2,90.7s88.4-43.1,88.4-90.7V5.7
		h-7.3V203c0,47.2-24.5,83.9-81.2,83.9c-52.9,0-76.4-36.6-78.7-77.1l21.8,0c2.5,42.6,28.5,56.7,57,56.7c32.9,0,59.4-17.7,59.4-63.5
		V12.5h-107v20.4h93v6.8H56.7v-34h121.1V203c0,46.3-25.9,70.3-66.7,70.3c-34.6,0-58.9-19.3-63.6-56.7l-7.3,0
		c4.6,37.5,28.6,63.5,70.9,63.5c48.7,0,73.9-30.4,73.9-77.1V5.7"/>
</g>
</svg>
