<?xml version="1.0" encoding="utf-8"?>
<!-- Generator: Adobe Illustrator 21.0.0, SVG Export Plug-In . SVG Version: 6.00 Build 0)  -->
<svg version="1.0" xmlns="http://www.w3.org/2000/svg" xmlns:xlink="http://www.w3.org/1999/xlink" x="0px" y="0px"
	 viewBox="0 0 249.4 354.3" enable-background="new 0 0 249.4 354.3" xml:space="preserve">
<g id="Linea_16" display="none">
	
		<polyline display="inline" fill="none" stroke="#000000" stroke-width="0.25" stroke-linecap="round" stroke-linejoin="round" stroke-miterlimit="10" points="
		51.1,179.1 51.1,21.5 48.7,21.5 48.7,273.3 51.1,273.3 51.1,182.6 199.6,5.7 244.9,5.7 146,121.3 244.9,289.1 201.8,289.1 
		120.6,151 70.3,209.8 70.3,206.4 121.1,147 203.4,286.9 240.7,286.9 143.1,121.3 240,7.9 200.7,7.9 53.5,183 53.5,275.5 
		46.3,275.5 46.3,19.3 53.5,19.3 53.5,176.3 55.9,173.4 55.9,17 43.8,17 43.8,277.8 55.9,277.8 55.9,183.5 201.8,10.2 235,10.2 
		140.2,121.3 236.5,284.6 204.9,284.6 121.6,143 70.3,203.1 70.3,199.8 122.1,139 206.4,282.3 232.3,282.3 137.3,121.2 230.1,12.5 
		202.9,12.5 58.4,184 58.4,280.1 41.4,280.1 41.4,14.7 58.4,14.7 58.4,170.5 60.8,167.6 60.8,12.5 39,12.5 39,282.3 60.8,282.3 
		60.8,184.4 204,14.7 225.1,14.7 134.5,121.2 228.1,280.1 208,280.1 122.6,135 70.3,196.5 70.3,193.2 123.1,131.1 209.5,277.8 
		223.9,277.8 131.6,121.2 220.2,17 205.1,17 63.2,184.9 63.2,284.6 36.6,284.6 36.6,10.2 63.2,10.2 63.2,164.7 65.6,161.9 65.6,7.9 
		34.2,7.9 34.2,286.9 65.6,286.9 65.6,185.4 206.2,19.3 215.2,19.3 128.7,121.1 219.7,275.5 211,275.5 123.6,127.1 70.3,189.8 
		70.3,186.5 124.1,123.1 212.6,273.3 215.5,273.3 125.8,121.1 210.3,21.5 207.3,21.5 68,185.8 68,289.1 31.7,289.1 31.7,5.7 68,5.7 
		68,159 	"/>
</g>
<g id="Linea_6">
	<polyline fill="none" stroke="#000000" stroke-linecap="round" stroke-linejoin="round" stroke-miterlimit="10" points="
		53.5,169.5 53.5,19.3 46.3,19.3 46.3,275.5 53.5,275.5 53.5,179.7 199.6,5.7 244.9,5.7 146,121.3 244.9,289.1 201.8,289.1 
		120.6,151 74.8,204.5 74.8,194.5 122.1,139 206.4,282.3 232.3,282.3 137.3,121.2 230.1,12.5 202.9,12.5 60.8,181.1 60.8,282.3 
		39,282.3 39,12.5 60.8,12.5 60.8,160.9 68,152.2 68,5.7 31.7,5.7 31.7,289.1 68,289.1 68,182.5 206.2,19.3 215.2,19.3 128.7,121.1 
		219.7,275.5 211,275.5 123.6,127.1 74.8,184.5 	"/>
</g>
</svg>
