<?xml version="1.0" encoding="utf-8"?>
<!-- Generator: Adobe Illustrator 21.0.0, SVG Export Plug-In . SVG Version: 6.00 Build 0)  -->
<svg version="1.0" xmlns="http://www.w3.org/2000/svg" xmlns:xlink="http://www.w3.org/1999/xlink" x="0px" y="0px"
	 viewBox="0 0 249.4 354.3" enable-background="new 0 0 249.4 354.3" xml:space="preserve">
<g id="Linea_16" display="none">
	
		<polyline display="inline" fill="none" stroke="#000000" stroke-width="0.25" stroke-linecap="round" stroke-linejoin="round" stroke-miterlimit="10" points="
		115,162 194.4,23.8 198.3,23.8 198.3,273.3 200.8,273.3 200.8,21.5 193.3,21.5 113.8,160 65.8,76.5 65.8,289.1 29.5,289.1 
		29.5,5.7 61.2,5.7 122.4,111.8 121.2,113.9 60.1,7.9 31.9,7.9 31.9,286.9 63.3,286.9 63.3,68.1 113.8,155.8 192.3,19.3 203.2,19.3 
		203.2,275.5 195.9,275.5 195.9,26.1 195.5,26.1 116.2,164.1 117.4,166.2 193.5,33.6 193.5,277.8 205.6,277.8 205.6,17 191.2,17 
		113.8,151.6 60.9,59.7 60.9,284.6 34.3,284.6 34.3,10.2 59,10.2 120,116 118.8,118.1 57.9,12.5 36.7,12.5 36.7,282.3 58.5,282.3 
		58.5,51.3 113.9,147.4 190.2,14.7 208,14.7 208,280.1 191.1,280.1 191.1,41.9 118.6,168.3 119.8,170.4 188.7,50.3 188.7,282.3 
		210.4,282.3 210.4,12.5 189.1,12.5 113.9,143.2 56.1,42.9 56.1,280.1 39.2,280.1 39.2,14.7 56.8,14.7 117.5,120.2 116.3,122.3 
		55.7,17 41.6,17 41.6,277.8 53.7,277.8 53.7,34.5 113.9,139.1 188.1,10.2 212.9,10.2 212.9,284.6 186.3,284.6 186.3,58.6 
		121,172.5 122.2,174.5 183.8,67 183.8,286.9 215.3,286.9 215.3,7.9 187,7.9 113.9,134.9 51.3,26.1 51.3,275.5 44,275.5 44,19.3 
		54.6,19.3 115.1,124.4 113.9,126.5 53.4,21.6 46.4,21.6 46.4,273.3 48.8,273.3 48.8,23.8 52.3,23.8 113.9,130.7 186,5.7 217.7,5.7 
		217.7,289.1 181.4,289.1 181.4,75.3 123.4,176.6 	"/>
</g>
<g id="Linea_6">
	<polyline fill="none" stroke="#000000" stroke-linecap="round" stroke-linejoin="round" stroke-miterlimit="10" points="
		116.2,164.1 195.5,26.1 195.9,26.1 195.9,275.5 203.2,275.5 203.2,19.3 192.3,19.3 112.6,157.9 65.8,76.5 65.8,289.1 29.5,289.1 
		29.5,5.7 61.2,5.7 120,107.7 116.4,114 57.9,12.5 36.7,12.5 36.7,282.3 58.5,282.3 58.5,51.3 112.7,145.3 189.1,12.5 210.4,12.5 
		210.4,282.3 188.7,282.3 188.7,50.3 119.8,170.4 123.4,176.6 181.4,75.3 181.4,289.1 217.7,289.1 217.7,5.7 186,5.7 112.7,132.8 
		51.3,26.1 51.3,275.5 44,275.5 44,19.3 54.6,19.3 112.7,120.3 	"/>
</g>
</svg>
