<?xml version="1.0" encoding="utf-8"?>
<!-- Generator: Adobe Illustrator 21.0.0, SVG Export Plug-In . SVG Version: 6.00 Build 0)  -->
<svg version="1.0" id="Ebene_3" xmlns="http://www.w3.org/2000/svg" xmlns:xlink="http://www.w3.org/1999/xlink" x="0px" y="0px"
	 viewBox="0 0 249.4 283.5" style="enable-background:new 0 0 249.4 283.5;" xml:space="preserve">
<g>
	<path d="M196.4,26.9c17.6,18,26.4,42.1,26.4,72.4V184c0,30.3-8.8,54.4-26.4,72.4c-17.6,18-41.7,26.9-72.4,26.9s-54.8-9-72.4-26.9
		c-17.6-18-26.4-42.1-26.4-72.4V99.3c0-30.3,8.8-54.4,26.4-72.4C69.2,9,93.3,0,124,0S178.8,9,196.4,26.9z M186.8,99.7
		c0-21.8-5.5-38.5-16.4-50S144,32.3,124,32.3s-35.5,5.8-46.4,17.3c-10.9,11.5-16.4,28.2-16.4,50v83.9c0,21.8,5.5,38.5,16.4,50
		C88.5,245.2,104,251,124,251s35.5-5.8,46.4-17.3s16.4-28.2,16.4-50V99.7z"/>
</g>
</svg>
