<?xml version="1.0" encoding="utf-8"?>
<!-- Generator: Adobe Illustrator 21.0.0, SVG Export Plug-In . SVG Version: 6.00 Build 0)  -->
<svg version="1.0" xmlns="http://www.w3.org/2000/svg" xmlns:xlink="http://www.w3.org/1999/xlink" x="0px" y="0px"
	 viewBox="0 0 249.4 354.3" enable-background="new 0 0 249.4 354.3" xml:space="preserve">
<g id="Linea_16" display="none">
	
		<path display="inline" fill="none" stroke="#000000" stroke-width="0.25" stroke-linecap="round" stroke-linejoin="round" stroke-miterlimit="10" d="
		M61.2,134.9l0-29.5c0-47.6,22.7-70.3,63.5-70.3c38.6,0,63.5,22.7,63.5,70.3l0,83.9c0,47.6-22.7,70.3-63.5,70.3
		c-38.6,0-63.5-22.7-63.5-70.3v-52.2H41.9l0-31.7c0-59.7,32.6-88.4,82.9-88.4c49.2,0,82.9,28.7,82.9,88.4l0,83.9
		c0,59.7-32.6,88.4-82.9,88.4c-49.2,0-82.9-28.7-82.9-88.4v-34l-2.4,0v34c0,61.2,34.8,90.7,85.3,90.7c51.4,0,85.3-29.5,85.3-90.7
		l0-83.9c0-61.2-34.8-90.7-85.3-90.7c-51.4,0-85.3,29.5-85.3,90.7l0,34l19.4,0v49.9c0,49.1,26,72.6,65.9,72.6
		c42,0,65.9-23.4,65.9-72.6l0-83.9c0-49.1-26-72.6-65.9-72.6c-42,0-65.9,23.4-65.9,72.6l0,29.5h-2.4l0-29.5
		c0-50.6,25.2-74.8,68.3-74.8c41.2,0,68.3,24.2,68.3,74.8l0,83.9c0,50.6-25.2,74.8-68.3,74.8c-41.2,0-68.3-24.2-68.3-74.8v-47.6
		l-19.4,0l0-36.3c0-62.7,35.1-93,87.7-93c51.8,0,87.7,30.2,87.7,93l0,83.9c0,62.7-35.1,93-87.7,93c-51.8,0-87.7-30.2-87.7-93v-34
		l-2.4,0v34c0,64.3,36.9,95.2,90.1,95.2c53.8,0,90.1-31,90.1-95.2l0-83.9c0-64.3-36.9-95.2-90.1-95.2c-53.8,0-90.1,31-90.1,95.2
		l0,38.6l19.4,0v45.4c0,52.2,28.2,77.1,70.8,77.1c44.3,0,70.8-24.9,70.8-77.1l0-83.9c0-52.2-28.2-77.1-70.8-77.1
		C80.4,28.3,54,53.3,54,105.4l0,29.5h-2.4l0-29.5c0-53.7,27.7-79.4,73.2-79.4c43.9,0,73.2,25.7,73.2,79.4l0,83.9
		c0,53.7-27.7,79.4-73.2,79.4c-43.9,0-73.2-25.7-73.2-79.4v-43.1l-19.4,0l0-40.8c0-65.8,37.6-97.5,92.5-97.5
		c54.5,0,92.5,31.7,92.5,97.5l0,83.9c0,65.8-37.6,97.5-92.5,97.5c-54.5,0-92.5-31.7-92.5-97.5v-34l-2.4,0v34
		c0,67.3,39.1,99.8,94.9,99.8c56.1,0,94.9-32.5,94.9-99.8l0-83.9c0-67.3-39.1-99.8-94.9-99.8c-56.1,0-94.9,32.5-94.9,99.8l0,43.1
		l19.4,0v40.8c0,55.2,30.4,81.6,75.6,81.6c46.7,0,75.6-26.5,75.6-81.6l0-83.9c0-55.2-30.4-81.6-75.6-81.6
		c-46.7,0-75.6,26.5-75.6,81.6l0,29.5h-2.4l0-29.5c0-56.7,30.1-83.9,78-83.9c46.5,0,78,27.2,78,83.9l0,83.9
		c0,56.7-30.1,83.9-78,83.9c-46.5,0-78-27.2-78-83.9v-38.6l-19.4,0l0-45.4c0-68.8,40.1-102,97.4-102c57.2,0,97.4,33.3,97.4,102
		l0,83.9c0,68.8-40.1,102-97.4,102c-57.2,0-97.4-33.3-97.4-102l0-34h-2.4v34c0,70.3,41.3,104.3,99.8,104.3s99.8-34,99.8-104.3v-83.9
		c0-70.3-41.3-104.3-99.8-104.3s-99.8,34-99.8,104.3v47.6l19.4,0v36.3c0,58.2,32.6,86.2,80.4,86.2c49.1,0,80.4-28,80.4-86.2l0-83.9
		c0-58.2-32.6-86.2-80.4-86.2c-49.1,0-80.4,28-80.4,86.2l0,29.5"/>
</g>
<g id="Linea_6">
	<path fill="none" stroke="#000000" stroke-linecap="round" stroke-linejoin="round" stroke-miterlimit="10" d="M46.7,132.7l0-27.2
		c0-56.7,30.1-83.9,78-83.9c46.5,0,78,27.2,78,83.9l0,83.9c0,56.7-30.1,83.9-78,83.9c-46.5,0-78-27.2-78-83.9v-36.3H24.9v-47.6
		c0-70.3,41.3-104.3,99.8-104.3s99.8,34,99.8,104.3v83.9c0,70.3-41.3,104.3-99.8,104.3s-99.8-34-99.8-104.3v-29.5h7.3v29.5
		c0,65.8,38,97.5,92.5,97.5c54.9,0,92.5-31.7,92.5-97.5l0-83.9c0-65.8-38-97.5-92.5-97.5c-54.9,0-92.5,31.7-92.5,97.5l0,40.8H54
		v43.1c0,52.2,28.2,77.1,70.8,77.1c44.3,0,70.8-24.9,70.8-77.1l0-83.9c0-52.2-28.2-77.1-70.8-77.1C80.4,28.3,54,53.3,54,105.4
		l0,27.2h7.3l0-27.2c0-47.6,22.7-70.3,63.5-70.3c38.6,0,63.5,22.7,63.5,70.3l0,83.9c0,47.6-22.7,70.3-63.5,70.3
		c-38.6,0-63.5-22.7-63.5-70.3v-49.9H39.5l0-34c0-61.2,33.9-90.7,85.3-90.7c50.5,0,85.3,29.5,85.3,90.7l0,83.9
		c0,61.2-33.9,90.7-85.3,90.7c-50.5,0-85.3-29.5-85.3-90.7v-29.5"/>
</g>
</svg>
