<?xml version="1.0" encoding="utf-8"?>
<!-- Generator: Adobe Illustrator 21.0.0, SVG Export Plug-In . SVG Version: 6.00 Build 0)  -->
<svg version="1.0" xmlns="http://www.w3.org/2000/svg" xmlns:xlink="http://www.w3.org/1999/xlink" x="0px" y="0px"
	 viewBox="0 0 249.4 354.3" enable-background="new 0 0 249.4 354.3" xml:space="preserve">
<g id="Linea_16" display="none">
	<g display="inline">
		
			<path fill="none" stroke="#000000" stroke-width="0.25" stroke-linecap="round" stroke-linejoin="round" stroke-miterlimit="10" d="
			M140.3,276.8c41.3-5.5,67.2-34.2,67.2-87.4l0-83.9c0-59.7-33.7-88.4-82.9-88.4c-50.2,0-82.9,28.7-82.9,88.4l0,83.9
			c0,58.3,32.1,87.1,79.5,88.4l0,31.8c0,16.2,5.4,28.7,25.9,28.7c10.8,0,18-4.2,22.2-10.6l-2.6,0c-4,5.2-10.3,8.5-19.6,8.5
			c-18.9,0-23.8-11.5-23.8-26.7l0-49.9c0.4,0,0.8,0,1.3,0c40.8,0,63.5-22.7,63.5-70.3l0-83.9c0-47.6-24.9-70.3-63.5-70.3
			c-40.8,0-63.5,22.7-63.5,70.3l0,83.9c0,46.2,23.5,68.9,60.1,70.2l0,2.3c-38-1.3-62.5-24.8-62.5-72.5l0-83.9
			c0-49.1,23.9-72.6,65.9-72.6c39.9,0,65.9,23.4,65.9,72.6l0,83.9c0,48.8-23.6,72.3-65.1,72.6l0,47.6c0,14.1,4.5,24.6,21.7,24.6
			c9.1,0,15-3.5,18.6-8.8l7.3,0c-4.2,8.8-12.5,14.9-25.9,14.9c-22.2,0-28.1-13.5-28.1-30.8l0-29.6c-47.5-2.1-79.8-31.6-79.8-90.6
			l0-83.9c0-61.2,33.9-90.7,85.3-90.7c50.5,0,85.3,29.5,85.3,90.7l0,83.9c0,54.8-27.1,84.2-69.7,89.7l0,2.3
			c43.8-5.6,72.1-35.7,72.1-92l0-83.9c0-62.7-35.8-93-87.7-93c-52.6,0-87.7,30.2-87.7,93l0,83.9c0,59.6,32.4,89.9,80.1,92.8l0,27.4
			c0,18.3,6.3,32.8,30.2,32.8c15.9,0,25.2-8.1,29.1-19.2l-11.6,0c-3.1,5.3-8.6,9-17.5,9c-15.6,0-19.6-9.5-19.6-22.6l0-45.4
			c41.4-1.1,65.4-25.3,65.4-74.8l0-83.9c0-50.6-27.1-74.8-68.3-74.8c-43.2,0-68.3,24.2-68.3,74.8l0,83.9c0,49.2,25.6,73.5,65,74.8
			l0,2.3c-40.7-1.3-67.4-26.3-67.4-77l0-83.9c0-52.2,26.4-77.1,70.8-77.1c42.5,0,70.8,24.9,70.8,77.1l0,83.9
			c0,50.1-24.4,75.1-65.7,77l0,43.2c0,12,3.5,20.5,17.5,20.5c8.7,0,13.7-3.9,16.3-9.2l15.7,0c-3.5,13.5-13.7,23.5-32,23.5
			c-25.5,0-32.3-15.5-32.3-34.9l-0.1-25.3c-47.9-3.6-80.3-34.6-80.3-94.9l0-83.9c0-64.3,36.3-95.2,90.1-95.2
			c53.2,0,90.1,31,90.1,95.2l0,83.9c0,57.8-29.4,88.7-74.5,94.3l0,2.3c46.3-5.6,76.9-37.3,76.9-96.6l0-83.9
			c0-65.8-38-97.5-92.5-97.5c-54.9,0-92.5,31.7-92.5,97.5l0,83.9c0,60.9,32.6,92.6,80.7,97l0,23.2c0,20.4,7.3,36.9,34.4,36.9
			c20.7,0,31.7-12,34.7-27.9l-19.7,0c-2.1,5.3-6.6,9.4-15,9.4c-12.4,0-15.4-7.5-15.4-18.5l0-41c41.2-2.6,66-28.4,66-79.1l0-83.9
			c0-53.7-29.3-79.4-73.2-79.4c-45.5,0-73.2,25.7-73.2,79.4l0,83.9c0,52.3,27.8,78,69.8,79.3l0,2.3c-43.3-1.3-72.2-27.8-72.2-81.6
			l0-83.9c0-55.2,28.9-81.6,75.6-81.6c45.2,0,75.6,26.5,75.6,81.6l0,83.9c0,51.4-25.1,77.9-66.3,81.3l0,38.9
			c0,9.9,2.6,16.4,13.3,16.4c8.2,0,12-4.4,13.5-9.6l23.7,0c-2.4,18.1-14.2,32.2-37.2,32.2c-28.8,0-36.5-17.5-36.5-39l0-21.1
			c-48.3-5.1-81-37.5-81-99.1l0-83.9c0-67.3,38.8-99.8,94.9-99.8c55.8,0,94.9,32.5,94.9,99.8l0,83.9c0,60.8-31.7,93.2-79.3,98.9
			l0,2.3c48.8-5.7,81.7-38.8,81.7-101.2l0-83.9c0-68.8-40.2-102-97.4-102c-57.3,0-97.4,33.3-97.4,102l0,83.9
			c0,62.2,32.8,95.3,81.3,101.1l0,19.1c0,22.5,8.2,41,38.6,41c25.3,0,37.8-16.1,39.6-36.5l-27.7,0c-0.9,5-3.9,9.9-11.9,9.9
			c-9.1,0-11.2-5.5-11.2-14.4l0-36.8c41.2-4.1,66.6-31.3,66.6-83.4l0-83.9c0-56.7-31.5-83.9-78-83.9c-47.9,0-78,27.2-78,83.9l0,83.9
			c0,55.3,30,82.6,74.6,83.9l0,2.3c-46-1.3-77.1-29.3-77.1-86.1l0-83.9c0-58.2,31.4-86.2,80.4-86.2c47.9,0,80.4,28,80.4,86.2l0,83.9
			c0,52.7-25.7,80.6-66.9,85.4l0,34.8c0,7.8,1.6,12.3,9.1,12.3c7.9,0,9.7-5.6,10.1-10.1h31.7c-1,22.7-14.3,40.8-41.8,40.8
			c-32,0-40.7-19.5-40.7-43.1l0-17c-48.7-6.5-81.6-40.4-81.6-103.1v-83.9c0-70.3,41.3-104.3,99.8-104.3s99.8,34,99.8,104.3v83.9
			c0,63.9-34.1,97.8-84.2,103.5"/>
	</g>
</g>
<g id="Linea_6">
	<g>
		<path fill="none" stroke="#000000" stroke-linecap="round" stroke-linejoin="round" stroke-miterlimit="10" d="M119.2,273.1
			c-43.5-2.1-72.5-29.3-72.5-83.8l0-83.9c0-56.7,30.1-83.9,78-83.9c46.5,0,78,27.2,78,83.9l0,83.9c0,51.2-24.5,78.3-64.5,83.1
			l0,37.1c0,7.8,1.6,12.3,9.1,12.3c7.9,0,9.7-5.6,10.1-10.1h31.7c-1,22.7-14.3,40.8-41.8,40.8c-32,0-40.7-19.5-40.7-43.1l0-17
			c-48.7-6.5-81.6-40.4-81.6-103.1v-83.9c0-70.3,41.3-104.3,99.8-104.3s99.8,34,99.8,104.3v83.9c0,62.1-32.2,95.8-80,102.9l0-6.9
			c44-7,72.7-38.5,72.7-96l0-83.9c0-65.8-38-97.5-92.5-97.5c-54.9,0-92.5,31.7-92.5,97.5l0,83.9c0,60.9,32.6,92.6,80.7,97l0,23.2
			c0,20.4,7.3,36.9,34.4,36.9c20.7,0,31.7-12,34.7-27.9l-19.7,0c-2.1,5.3-6.6,9.4-15,9.4c-12.4,0-15.4-7.5-15.4-18.5l0-43.3
			c40-2.6,63.6-27.6,63.6-76.9l0-83.9c0-52.2-28.2-77.1-70.8-77.1C80.4,28.3,54,53.3,54,105.4l0,83.9c0,49.9,25.8,74.9,65.3,77
			l0-6.8c-35.4-2.1-58-24.8-58-70.1l0-83.9c0-47.6,22.7-70.3,63.5-70.3c38.6,0,63.5,22.7,63.5,70.3l0,83.9c0,47.3-22.4,70-62.7,70.3
			l0,49.9c0,14.1,4.5,24.6,21.7,24.6c9.1,0,15-3.5,18.6-8.8l7.3,0c-4.2,8.8-12.5,14.9-25.9,14.9c-22.2,0-28.1-13.5-28.1-30.8l0-29.6
			c-47.5-2.1-79.8-31.6-79.8-90.6l0-83.9c0-61.2,33.9-90.7,85.3-90.7c50.5,0,85.3,29.5,85.3,90.7l0,83.9c0,53-25.3,82.2-65.5,89.1"
			/>
	</g>
</g>
</svg>
