<?xml version="1.0" encoding="utf-8"?>
<!-- Generator: Adobe Illustrator 21.0.0, SVG Export Plug-In . SVG Version: 6.00 Build 0)  -->
<svg version="1.0" xmlns="http://www.w3.org/2000/svg" xmlns:xlink="http://www.w3.org/1999/xlink" x="0px" y="0px"
	 viewBox="0 0 249.4 354.3" enable-background="new 0 0 249.4 354.3" xml:space="preserve">
<g id="Linea_16" display="none">
	<g display="inline">
		
			<path fill="none" stroke="#000000" stroke-width="0.25" stroke-linecap="round" stroke-linejoin="round" stroke-miterlimit="10" d="
			M51.1,125.9v-102l82.8,0c56.8,0,71.3,26.6,71.3,61.2s-14.5,59-71.3,59H31.7V5.7c0,0,32.1,0,102.1,0c72.5,0,90.6,37.6,90.6,79.4
			c0,33.6-11.7,63-54,73.2L229,289.1h-40.8l-54.3-127c0,0,0,0-0.1,0c-1.7,0-28.4,0-65.8,0v127H31.7V146.3h2.4v140.6h31.4v-127h68.3
			c0.5,0,1,0,1.5,0l54.6,127l35.3,0l-58.1-130.2c43-9.4,54.8-38.2,54.8-71.6c0-40.9-17.7-77.1-88.2-77.1c-59.1,0-99.7,0-99.7,0
			v133.8h99.7c54.8,0,68.9-22.9,68.9-56.7s-14.1-59-68.9-59l-80.4,0v99.8h2.4V28.3l77.9,0c52.8,0,66.4,23.8,66.4,56.7
			s-13.6,54.4-66.4,54.4H36.6V10.2l97.3,0c68.6,0,85.8,34.9,85.8,74.8c0,33.3-12,61.5-55.7,70l57.6,129.6l-29.9,0l-54.8-127
			c-1,0-2,0-3,0H63.2v127H36.6V146.3H39v136.1h21.8v-127h73.1c1.6,0,3.1,0,4.6-0.1l54.9,127l24.4,0l-57.2-129
			c44.5-7.5,56.6-35,56.6-68.3c0-39.1-16.8-72.6-83.4-72.6l-94.9,0v124.7h94.9c50.9,0,64-20.1,64-52.2s-13.2-54.4-64-54.4l-75.5,0
			v95.2h2.4v-93l73.1,0v0c48.9,0,61.6,21,61.6,52.2s-12.7,49.9-61.6,49.9H41.4V14.7l92.5,0c64.6,0,80.9,32.1,80.9,70.3
			c0,33.1-12.3,59.9-57.6,66.5l56.9,128.5l-19,0L140.1,153c-2,0.1-4.1,0.1-6.2,0.1H58.4v127H41.4V146.3h2.4v131.5h12.1v-127h77.9
			c2.7,0,5.2-0.1,7.7-0.2l55.3,127.1l13.5,0l-56.5-128.1c46.1-5.6,58.5-31.7,58.5-64.6c0-37.3-15.9-68-78.5-68h-90v115.7h90
			c46.9,0,59.2-17.4,59.2-47.6s-12.2-49.9-59.2-49.9l-70.7,0v90.7h2.4V37.4l68.3,0c45,0,56.8,18.3,56.8,47.6s-11.8,45.4-56.8,45.4
			H46.3V19.3h87.6c60.7,0,76.1,29.3,76.1,65.8c0,32.9-12.5,58.1-59.5,62.7l56.2,127.8l-8.1,0l-55.5-127.2c-3,0.1-6,0.2-9.3,0.2H53.5
			v127h-7.3V146.3h2.4v127h2.4v-127h82.8c3.8,0,7.4-0.1,10.8-0.3l55.6,127.3l2.7,0l-55.9-127.5c47.8-3.7,60.5-28,60.5-60.7
			c0-35.6-15-63.5-73.7-63.5l-85.2,0v106.6h85.2c43,0,54.3-14.6,54.3-43.1s-11.3-45.4-54.3-45.4l-65.8,0v86.2"/>
	</g>
</g>
<g id="Linea_6">
	<g>
		<path fill="none" stroke="#000000" stroke-linecap="round" stroke-linejoin="round" stroke-miterlimit="10" d="M46.3,148.5v127
			h7.3v-127h80.4c3.2,0,6.3-0.1,9.3-0.2l55.5,127.2l8.1,0l-56.2-127.8c46.9-4.7,59.5-29.9,59.5-62.7c0-36.4-15.4-65.8-76.1-65.8
			H46.3v108.9h87.6c43,0,54.3-14.6,54.3-43.1s-11.3-45.4-54.3-45.4l-65.8,0v81.6h-7.3V32.9l73.1,0v0c48.9,0,61.6,21,61.6,52.2
			s-12.7,49.9-61.6,49.9H39V12.5l94.9,0c66.6,0,83.4,33.5,83.4,72.6c0,33.2-12.1,60.8-56.6,68.3l57.2,129l-24.4,0l-54.9-127
			c-1.5,0-3.1,0.1-4.6,0.1H60.8v127H39V148.5h-7.3v140.6H68v-127c37.4,0,64.1,0,65.8,0c0.1,0,0.1,0,0.1,0l54.3,127H229l-58.5-130.8
			c42.3-10.2,54-39.7,54-73.2c0-41.8-18.1-79.4-90.6-79.4c-70,0-102.1,0-102.1,0v136.1h102.1c54.8,0,68.9-22.9,68.9-56.7
			s-14.1-59-68.9-59l-80.4,0v95.2"/>
	</g>
</g>
</svg>
