<?xml version="1.0" encoding="utf-8"?>
<!-- Generator: Adobe Illustrator 21.0.0, SVG Export Plug-In . SVG Version: 6.00 Build 0)  -->
<svg version="1.0" xmlns="http://www.w3.org/2000/svg" xmlns:xlink="http://www.w3.org/1999/xlink" x="0px" y="0px"
	 viewBox="0 0 249.4 354.3" enable-background="new 0 0 249.4 354.3" xml:space="preserve">
<g id="Linea_16" display="none">
	<g display="inline">
		
			<path fill="none" stroke="#000000" stroke-width="0.25" stroke-linecap="round" stroke-linejoin="round" stroke-miterlimit="10" d="
			M109,157.7c-36.9-11.8-72.7-28.8-72.7-79.5c0-43.4,28.4-77.1,88.4-77.1c61.9,0,95.2,42.2,95.2,90.7l-36.3,0
			c0-31.8-23.1-56.7-59-56.7c-29.5,0-52.2,9.1-52.2,43.1c0,28.7,25.4,38.9,55.4,48l2.3,20.5c37.6,11.7,74.9,23.2,74.9,65.3
			c0,51.7-42.2,63.5-78.2,63.5c-52.7,0-77.4-33.9-83.4-65.8l-2.5,0c6,32.5,31.1,68,85.9,68c38.2,0,80.6-13.2,80.6-65.8
			c0-43.2-37.1-55.3-74.7-67l-0.3-2.6c38.4,11.9,77.4,24.1,77.4,69.5c0,53.5-42.4,68-83,68c-58.3,0-83.5-38.8-88.7-72.6l7.3,0
			c5.3,31.8,29.6,65.8,81.4,65.8c33.6,0,75.7-10.4,75.7-61.2c0-41-37.4-51.9-75.1-63.6l-2.3-20.6c-29.9-9.3-55.2-20-55.2-49.6
			c0-34.6,23.1-45.4,54.6-45.4c36.7,0,60.2,24.9,61.3,56.7l31.5,0c-1.1-46.4-33.6-86.2-92.8-86.2c-58,0-86,32.1-86,74.8
			c0,48.4,34.1,65.1,70,76.9l-0.2-2.6c-34.9-11.6-67.4-28.1-67.4-74.2c0-42.1,27.6-72.6,83.6-72.6C181.2,5.7,213,43,215,87.3
			l-26.7,0c-2.1-31.9-26.1-56.7-63.6-56.7c-33.6,0-57,12.4-57,47.6c0,30.5,25.2,41.8,55.1,51.3l2.2,20.6
			c37.8,11.7,75.3,22,75.3,61.9c0,49.9-42,59-73.3,59c-50.9,0-74.7-34-79.3-65.8l-12.2,0c4.4,35,29.7,77.1,91.5,77.1
			c42.9,0,85.4-15.9,85.4-70.3c0-47.8-40.8-60-80.1-72.1l-0.3-2.6c40.1,12.3,82.8,24.6,82.8,74.7c0,55.3-42.7,72.6-87.8,72.6
			c-65.3,0-90.6-45.7-94.2-81.6l17,0c3.7,31.7,27.3,65.8,77.2,65.8c29,0,70.9-7.7,70.9-56.7c0-38.7-37.7-48.4-75.6-60.2l-2.1-20.7
			c-29.8-9.6-54.9-21.6-54.9-52.9c0-35.9,23.8-49.9,59.4-49.9c38.4,0,62.8,24.8,65.9,56.7l21.9,0c-3-42.2-33.9-77.1-87.7-77.1
			c-54,0-81.2,28.8-81.2,70.3c0,43.9,30.9,60.2,64.8,71.6l-0.2-2.6C75.2,136,46,120.1,46,78.2c0-40.9,26.8-68,78.8-68
			c51.1,0,81.2,32.5,85.1,72.6l-17,0c-4-32-28.9-56.7-68.1-56.7c-37.6,0-61.8,15.6-61.8,52.2c0,32.2,25.1,44.7,54.8,54.6l2,20.7
			c37.9,11.8,75.8,20.9,75.8,58.5c0,48.1-41.8,54.4-68.5,54.4c-48.9,0-72.1-34-75-65.8l-21.8,0c2.7,36.8,27.9,86.2,96.8,86.2
			c47.5,0,90.3-18.6,90.3-74.8c0-52.6-44.6-64.8-85.5-77.3l-0.3-2.6c41.6,12.6,88.2,24.7,88.2,79.8c0,57.1-42.9,77.1-92.7,77.1
			c-72.6,0-97.5-53.2-99.4-90.7l26.6,0c2,31.9,24.9,65.8,72.7,65.8c24.4,0,66.1-5,66.1-52.2c0-36.4-38-44.9-76-56.8l-1.9-20.8
			c-29.7-10-54.7-23.1-54.7-56.2c0-37.1,24.6-54.4,64.3-54.4c39.9,0,65.4,24.7,70.2,56.7l12.2,0c-4.8-37.8-34-68-82.4-68
			c-49.9,0-76.3,25.5-76.3,65.8c0,39.7,27.7,55.3,59.5,66.4l-0.2-2.6C77,131.1,50.8,115.9,50.8,78.2c0-39.6,26.1-63.5,73.9-63.5
			c45.8,0,74,27.9,79.7,63.5l-7.4,0c-5.7-32.1-31.6-56.7-72.3-56.7c-41.7,0-66.7,18.9-66.7,56.7c0,34,24.9,47.6,54.5,57.8l1.9,20.8
			c38.1,11.9,76.2,19.8,76.2,55.1c0,46.3-41.6,49.9-63.6,49.9c-46.6,0-69.4-33.7-70.4-65.8l-31.5,0c0.9,38.1,25.5,95.2,101.9,95.2
			c52.1,0,95.1-21.3,95.1-79.4c0-57.7-48.7-69.7-90.9-82.4l-0.3-2.5c42.9,12.8,93.7,24.6,93.7,84.9c0,59-43.1,81.6-97.5,81.6
			c-80.2,0-104.3-61.3-104.3-99.8H59c0,32.3,22.6,65.8,68,65.8c19.7,0,61.2-2.3,61.2-47.6c0-34.1-38.3-41.4-76.4-53.4l-1.8-20.9
			c-29.6-10.4-54.4-24.7-54.4-59.5c0-38.4,25.3-59,69.1-59c41.4,0,67.8,24.5,74.3,56.7l2.5,0c-6.5-33.3-33.7-59-76.8-59
			c-45.8,0-71.5,22.2-71.5,61.2c0,35.7,24.8,50.5,54.3,61.1"/>
	</g>
</g>
<g id="Linea_6">
	<g>
		<path fill="none" stroke="#000000" stroke-linecap="round" stroke-linejoin="round" stroke-miterlimit="10" d="M102.1,139.9
			c-28.2-10.7-51.3-26.3-51.3-61.7c0-39.6,26.1-63.5,73.9-63.5c45.8,0,74,27.9,79.7,63.5l-7.4,0c-5.7-32.1-31.6-56.7-72.3-56.7
			c-41.7,0-66.7,18.9-66.7,56.7c0,32.9,23.4,46.8,51.8,56.9l2,23.5c38.1,12,76.4,19.3,76.4,53.4c0,45.4-41.5,47.6-61.2,47.6
			c-45.4,0-68-33.5-68-65.8H22.7c0,38.5,24.1,99.8,104.3,99.8c54.4,0,97.5-22.7,97.5-81.6c0-59-48.5-71.6-90.7-84.1l0.9,7.6
			c40.1,12.2,82.6,25,82.6,76.4c0,56.2-42.8,74.8-90.3,74.8c-68.9,0-94.1-49.3-96.8-86.2l21.8,0c2.9,31.8,26.1,65.8,75,65.8
			c26.7,0,68.5-6.3,68.5-54.4c0-37.6-37.8-46.7-75.8-58.5l-2.3-23.3c-28.6-9.5-52.1-21.6-52.1-52c0-35.9,23.8-49.9,59.4-49.9
			c38.4,0,62.8,24.8,65.9,56.7l21.9,0c-3-42.2-33.9-77.1-87.7-77.1c-54,0-81.2,28.8-81.2,70.3c0,41.5,27.5,58.3,59.2,69.7l0.6,7.9
			c-34.8-11.8-67-29.5-67-77.6c0-43.4,28.4-77.1,88.4-77.1c61.9,0,95.2,42.2,95.2,90.7l-36.3,0c0-31.8-23.1-56.7-59-56.7
			c-29.5,0-52.2,9.1-52.2,43.1c0,27.8,23.8,38.2,52.5,47.1l2.5,23.1c37.7,11.7,75.1,22.6,75.1,63.6c0,50.8-42.1,61.2-75.7,61.2
			c-51.8,0-76.1-34-81.4-65.8l-7.3,0c5.3,33.8,30.5,72.6,88.7,72.6c40.6,0,83-14.5,83-68c0-44.3-37-57-74.5-68.6"/>
	</g>
</g>
</svg>
