<?xml version="1.0" encoding="utf-8"?>
<!-- Generator: Adobe Illustrator 21.0.0, SVG Export Plug-In . SVG Version: 6.00 Build 0)  -->
<svg version="1.0" id="Ebene_3" xmlns="http://www.w3.org/2000/svg" xmlns:xlink="http://www.w3.org/1999/xlink" x="0px" y="0px"
	 viewBox="0 0 249.4 283.5" style="enable-background:new 0 0 249.4 283.5;" xml:space="preserve">
<g>
	<path d="M196.6,262.9c-18.3,13.3-41,20-68.2,20c-14.4,0-27.4-1.7-39-5.2c-11.6-3.5-20.9-8-28-13.7c-7.1-5.6-13.2-11.8-18.4-18.5
		c-5.2-6.7-9-13.4-11.4-20.2c-2.4-6.8-4.3-13-5.6-18.7c-1.3-5.6-2-10.1-2-13.5l-0.4-5.4h36c0,0.8,0.1,1.9,0.2,3.5
		c0.1,1.5,0.7,4.5,1.6,8.9c0.9,4.4,2.2,8.5,3.8,12.5c1.6,4,4.1,8.3,7.6,13.1c3.5,4.7,7.5,8.9,12.2,12.3c4.7,3.5,10.7,6.4,18.2,8.9
		c7.5,2.4,15.9,3.7,25.2,3.7c17.3,0,31.6-3.5,42.8-10.4c11.2-6.9,16.8-18.2,16.8-33.9c0-11.3-3.3-20.3-10-26.9
		c-6.7-6.7-18.1-12.4-34.4-17.3l-35.2-10.4c-23.2-6.7-41.1-15.8-53.6-27.5C42.3,112.5,36,96.4,36,75.8c0-22.8,8.2-41.2,24.6-55
		C77,6.9,98.5,0,125.2,0c17.9,0,33.3,3,46.2,9c12.9,6,22.4,13.3,28.4,21.9c6,8.6,10.7,17.3,14,26c3.3,8.7,5.1,16.2,5.4,22.3l0.8,8.9
		h-36c0-1.5-0.1-3.5-0.4-6c-0.3-2.4-1.5-6.9-3.8-13.3c-2.3-6.4-5.3-12.1-9-17.1c-3.7-5-9.6-9.5-17.6-13.5c-8-4-17.5-6-28.4-6
		C89.6,32.3,72,46.6,72,75.1c0,19.8,13.9,33.6,41.6,41.6l35.2,10.4c25.3,7.4,44.2,17.2,56.6,29.3c12.4,12.1,18.6,28.5,18.6,49.3
		C224,230.4,214.9,249.6,196.6,262.9z"/>
</g>
</svg>
