<?xml version="1.0" encoding="utf-8"?>
<!-- Generator: Adobe Illustrator 21.0.0, SVG Export Plug-In . SVG Version: 6.00 Build 0)  -->
<svg version="1.0" xmlns="http://www.w3.org/2000/svg" xmlns:xlink="http://www.w3.org/1999/xlink" x="0px" y="0px"
	 viewBox="0 0 249.4 354.3" enable-background="new 0 0 249.4 354.3" xml:space="preserve">
<g id="Linea_16" display="none">
	
		<polyline display="inline" fill="none" stroke="#000000" stroke-width="0.25" stroke-linecap="round" stroke-linejoin="round" stroke-miterlimit="10" points="
		104.3,39.7 6.8,39.7 6.8,5.7 123.5,5.7 123.5,273.3 125.9,273.3 125.9,5.7 242.6,5.7 242.6,39.7 145.1,39.7 145.1,37.4 240.4,37.4 
		240.4,7.9 128.4,7.9 128.4,275.5 121.1,275.5 121.1,7.9 9.1,7.9 9.1,37.4 104.3,37.4 104.3,35.1 11.3,35.1 11.3,10.2 118.7,10.2 
		118.7,277.8 130.8,277.8 130.8,10.2 238.1,10.2 238.1,35.1 145.1,35.1 145.1,32.9 235.8,32.9 235.8,12.5 133.2,12.5 133.2,280.1 
		116.3,280.1 116.3,12.5 13.6,12.5 13.6,32.9 104.3,32.9 104.3,30.6 15.9,30.6 15.9,14.7 113.8,14.7 113.8,282.3 135.6,282.3 
		135.6,14.7 233.6,14.7 233.6,30.6 145.1,30.6 145.1,28.3 231.3,28.3 231.3,17 138,17 138,284.6 111.4,284.6 111.4,17 18.1,17 
		18.1,28.3 104.3,28.3 104.3,26.1 20.4,26.1 20.4,19.3 109,19.3 109,286.9 140.4,286.9 140.4,19.3 229,19.3 229,26.1 145.1,26.1 
		145.1,23.8 226.8,23.8 226.8,21.5 142.9,21.5 142.9,289.1 106.6,289.1 106.6,21.5 22.7,21.5 22.7,23.8 104.3,23.8 	"/>
</g>
<g id="Linea_6">
	<polyline fill="none" stroke="#000000" stroke-linecap="round" stroke-linejoin="round" stroke-miterlimit="10" points="
		149.7,39.7 242.6,39.7 242.6,5.7 128.4,5.7 128.4,275.5 121.1,275.5 121.1,5.7 6.8,5.7 6.8,39.7 99.8,39.7 99.8,32.9 13.6,32.9 
		13.6,12.5 113.8,12.5 113.8,282.3 135.6,282.3 135.6,12.5 235.8,12.5 235.8,32.9 149.7,32.9 149.7,26.1 229,26.1 229,19.3 
		142.9,19.3 142.9,289.1 106.6,289.1 106.6,19.3 20.4,19.3 20.4,26.1 99.8,26.1 	"/>
</g>
</svg>
