<?xml version="1.0" encoding="utf-8"?>
<!-- Generator: Adobe Illustrator 21.0.0, SVG Export Plug-In . SVG Version: 6.00 Build 0)  -->
<svg version="1.0" xmlns="http://www.w3.org/2000/svg" xmlns:xlink="http://www.w3.org/1999/xlink" x="0px" y="0px"
	 viewBox="0 0 249.4 354.3" enable-background="new 0 0 249.4 354.3" xml:space="preserve">
<g id="Linea_16" display="none">
	
		<path display="inline" fill="none" stroke="#000000" stroke-width="0.25" stroke-linecap="round" stroke-linejoin="round" stroke-miterlimit="10" d="
		M113.4,293.3c-49.8-3.7-83.9-35.5-83.9-97.1V5.7h36.3v190.5c0,43,22.8,63.5,57.9,63.5c2.7,0,5.3-0.1,7.8-0.3l0,18.2
		c42.3-2.9,69.2-29.4,69.2-81.4V21.5h-2.4v174.6c0,49.5-24.9,75.3-64.6,78.9l0-2.3c38.4-3.6,62.1-28.6,62.1-76.6V19.3h7.3v176.9
		c0,54.4-29.1,81.7-73.9,83.8l0-18.2c-1.8,0.1-3.7,0.2-5.6,0.2c-36.5,0-60.3-21.2-60.3-65.8l0-188.2l-31.4,0v188.2
		c0,60.1,33.1,91.1,81.5,94.9l0-2.3c-47.1-3.7-79.1-34-79.1-92.6v-186l26.6,0v186c0,46,24.9,68,62.7,68c1.1,0,2.2,0,3.3-0.1l0,18.1
		c47.3-1.3,78.6-29.3,78.6-86.1V17h-12.1v179.1c0,46.5-22.6,70.7-59.7,74.4l0-2.3c35.9-3.6,57.3-27.1,57.3-72.1V14.7H208v181.4
		c0,59.2-33.6,88-83.3,88.4l0-18.1c-0.4,0-0.7,0-1.1,0c-39.1,0-65.1-22.7-65.1-70.3V12.5l-21.8,0v183.7c0,57,31,86.6,76.6,90.3
		l0-2.3c-44.3-3.7-74.2-32.5-74.2-88V14.7l16.9,0v181.4c0,48.6,26.5,72.1,66.4,72.6l0,18.1c0.4,0,0.7,0,1.1,0
		c51.6,0,86.9-29.5,86.9-90.7V12.5h-21.8v183.7c0,43.5-20.3,66.2-54.9,69.8l0-2.3c33.3-3.6,52.5-25.6,52.5-67.5v-186h26.6v186
		c0,62.7-36.5,93-89.3,93c-1.1,0-2.2,0-3.3,0l0-18.2c-39.9-1.3-66.5-25.6-66.5-74.8V17l-12.1,0v179.1c0,54,28.9,82,71.8,85.7l0-2.3
		c-41.6-3.7-69.4-31-69.4-83.5V19.3l7.3,0v176.9c0,49.8,26.7,74.8,66.7,77l0,18.2c1.8,0.1,3.7,0.1,5.6,0.1c54,0,91.8-31,91.8-95.2
		V7.9h-31.4v188.2c0,40.4-18,61.7-50,65.2l0-2.3c30.8-3.5,47.6-24,47.6-62.9V5.7h36.3v190.5c0,65.7-39,97.5-94.2,97.5
		c-2.7,0-5.3-0.1-7.8-0.2l0-18.2c-40.1-2.9-66.8-28.7-66.8-79.1V21.5l-2.4,0v174.6c0,50.9,26.8,77.4,67,81.2"/>
</g>
<g id="Linea_6">
	<path fill="none" stroke="#000000" stroke-linecap="round" stroke-linejoin="round" stroke-miterlimit="10" d="M111.1,279.4
		C70.8,274.9,44,247.7,44,196.2V19.3l7.3,0v176.9c0,49.8,26.7,74.8,66.7,77l0,20.4c1.8,0.1,3.7,0.1,5.6,0.1
		c55.2,0,94.2-31.8,94.2-97.5V5.7h-36.3v190.5c0,37-15.2,57.3-43.1,62.3l0,6.9c31.8-5.1,50.3-27.7,50.3-69.2V12.5h21.8v183.7
		c0,60.7-34.8,90.3-85.7,90.7l0-20.4c-0.4,0-0.7,0-1.1,0c-39.1,0-65.1-22.7-65.1-70.3V12.5l-21.8,0v183.7
		c0,56.1,29.9,85.6,74.4,90.1l0,6.9c-48.6-4.5-81.6-36.3-81.6-97V5.7h36.3v190.5c0,43,22.8,63.5,57.9,63.5c2.7,0,5.3-0.1,7.8-0.3
		l0,20.5c43.5-2.9,71.7-30.2,71.7-83.6V19.3h-7.3v176.9c0,46.1-21.9,71-57.6,76.1"/>
</g>
</svg>
