<?xml version="1.0" encoding="utf-8"?>
<!-- Generator: Adobe Illustrator 21.0.0, SVG Export Plug-In . SVG Version: 6.00 Build 0)  -->
<svg version="1.0" xmlns="http://www.w3.org/2000/svg" xmlns:xlink="http://www.w3.org/1999/xlink" x="0px" y="0px"
	 viewBox="0 0 249.4 354.3" enable-background="new 0 0 249.4 354.3" xml:space="preserve">
<g id="Linea_16" display="none">
	
		<polyline display="inline" fill="none" stroke="#000000" stroke-width="0.25" stroke-linecap="round" stroke-linejoin="round" stroke-miterlimit="10" points="
		115.6,267 39,21.2 36.4,21.2 115.2,273.3 115.9,273.3 197.3,5.7 235.8,5.7 145.1,289.1 142.9,289.1 232.6,7.9 199.2,7.9 
		117.5,275.5 113.7,275.5 33.3,19.3 41,19.3 116.7,263.3 117.8,259.6 42.8,17 30,17 112.1,277.8 119.1,277.8 201,10.2 229.3,10.2 
		140.6,289.1 138.3,289.1 226,12.5 202.9,12.5 120.7,280.1 110.6,280.1 26.8,14.7 44.7,14.7 119,255.8 120.1,252 46.5,12.5 
		23.5,12.5 109,282.3 122.3,282.3 204.7,14.7 222.7,14.7 136.1,289.1 133.8,289.1 219.4,17 206.6,17 123.8,284.6 107.4,284.6 
		20.2,10.2 48.4,10.2 121.3,248.2 122.5,244.4 50.3,7.9 16.9,7.9 105.9,286.9 125.4,286.9 208.5,19.3 216.2,19.3 131.5,289.1 
		129.3,289.1 212.9,21.5 210.3,21.5 127,289.1 104.3,289.1 13.6,5.7 52.2,5.7 123.6,240.6 	"/>
</g>
<g id="Linea_6">
	<polyline fill="none" stroke="#000000" stroke-linecap="round" stroke-linejoin="round" stroke-miterlimit="10" points="
		114.4,255.9 41,19.3 33.3,19.3 113.7,275.5 115.3,275.5 197.3,5.7 235.8,5.7 145.1,289.1 138.3,289.1 226,12.5 202.9,12.5 
		120,282.3 109,282.3 23.5,12.5 46.5,12.5 117.8,244.6 121.3,233.2 52.2,5.7 13.6,5.7 104.3,289.1 124.7,289.1 208.5,19.3 
		216.2,19.3 131.5,289.1 	"/>
</g>
</svg>
