<?xml version="1.0" encoding="utf-8"?>
<!-- Generator: Adobe Illustrator 21.0.0, SVG Export Plug-In . SVG Version: 6.00 Build 0)  -->
<svg version="1.0" xmlns="http://www.w3.org/2000/svg" xmlns:xlink="http://www.w3.org/1999/xlink" x="0px" y="0px"
	 viewBox="0 0 249.4 354.3" enable-background="new 0 0 249.4 354.3" xml:space="preserve">
<g id="Linea_16" display="none">
	
		<polyline display="inline" fill="none" stroke="#000000" stroke-width="0.25" stroke-linecap="round" stroke-linejoin="round" stroke-miterlimit="10" points="
		125.1,187.2 181.4,289.1 213.2,289.1 224.5,5.7 188.2,5.7 179.4,226.3 132.1,138.3 61.5,273.3 52.4,273.3 40.4,21.5 42.8,21.5 
		54.8,271 60.6,271 129.7,138.3 127.3,138.3 59.6,268.7 57.1,268.7 45.1,19.3 37.8,19.3 50.1,275.5 62.5,275.5 132.2,142.7 
		181.5,234.2 190.5,7.9 222,7.9 210.8,286.9 182.3,286.9 126.2,185.2 127.3,183.2 183.2,284.6 208.5,284.6 219.5,10.2 192.9,10.2 
		183.6,242.2 132.3,147.1 63.4,277.8 47.8,277.8 35.3,17 47.4,17 59.3,265.1 124.9,138.3 122.5,138.3 61.3,256.9 49.7,14.7 
		32.8,14.7 45.5,280.1 64.4,280.1 132.4,151.4 185.7,250.1 195.2,12.5 217,12.5 206.2,282.3 184,282.3 128.4,181.1 129.5,179.1 
		184.9,280.1 203.9,280.1 214.5,14.7 197.5,14.7 187.8,257.9 132.5,155.8 65.3,282.3 43.2,282.3 30.3,12.5 52,12.5 63.4,248.7 
		120.1,138.3 117.6,138.3 65.4,240.5 54.3,10.2 27.7,10.2 40.9,284.6 66.2,284.6 132.6,160.1 189.9,265.8 199.9,17 212,17 
		201.5,277.8 185.8,277.8 130.6,177 131.7,175 186.7,275.5 199.2,275.5 209.4,19.3 202.2,19.3 192.2,268.7 189.4,268.7 132.7,164.4 
		67.1,286.9 38.6,286.9 25.2,7.9 56.7,7.9 67.4,232.2 115.2,138.3 112.8,138.3 69.4,223.8 59,5.7 22.7,5.7 36.3,289.1 68,289.1 
		132.8,168.7 188.5,271 194.5,271 204.5,21.5 206.9,21.5 196.9,273.3 187.6,273.3 132.8,172.9 	"/>
</g>
<g id="Linea_6">
	<polyline fill="none" stroke="#000000" stroke-linecap="round" stroke-linejoin="round" stroke-miterlimit="10" points="
		134.1,179.3 186.7,275.5 199.2,275.5 209.4,19.3 202.2,19.3 192.2,268.7 189.4,268.7 133.9,166.6 68,289.1 36.3,289.1 22.7,5.7 
		59,5.7 69.4,223.8 111.7,140.6 118.9,140.6 63.4,248.7 52,12.5 30.3,12.5 43.2,282.3 65.3,282.3 133.6,153.7 185.7,250.1 
		195.2,12.5 217,12.5 206.2,282.3 184,282.3 130.8,185.5 127.5,191.6 181.4,289.1 213.2,289.1 224.5,5.7 188.2,5.7 179.4,226.3 
		133.4,140.6 62.5,275.5 50.1,275.5 37.8,19.3 45.1,19.3 57.1,268.7 59.6,268.7 126.1,140.6 	"/>
</g>
</svg>
