<?xml version="1.0" encoding="utf-8"?>
<!-- Generator: Adobe Illustrator 21.0.0, SVG Export Plug-In . SVG Version: 6.00 Build 0)  -->
<svg version="1.0" xmlns="http://www.w3.org/2000/svg" xmlns:xlink="http://www.w3.org/1999/xlink" x="0px" y="0px"
	 viewBox="0 0 249.4 354.3" enable-background="new 0 0 249.4 354.3" xml:space="preserve">
<g id="Linea_16" display="none">
	
		<polyline display="inline" fill="none" stroke="#000000" stroke-width="0.25" stroke-linecap="round" stroke-linejoin="round" stroke-miterlimit="10" points="
		124.7,111.5 188.3,5.7 231.3,5.7 145.7,146.5 231.3,289.1 190.5,289.1 123.3,178.7 56.2,289.1 15.4,289.1 112.1,128 47.8,21.5 
		44.9,21.5 109.3,127.9 107.8,130.3 40.7,19.3 49.3,19.3 114.9,128 19.5,286.9 54.9,286.9 123.3,174.1 191.8,286.9 227.2,286.9 
		142.9,146.5 227.1,7.9 189.8,7.9 126.1,113.8 127.5,116.2 191.2,10.2 222.8,10.2 140.1,146.5 223.1,284.6 193.2,284.6 123.3,169.5 
		53.5,284.6 23.6,284.6 117.7,128 50.8,17 36.5,17 106.5,132.5 105,134.9 32.3,14.7 52.3,14.7 120.5,127.9 27.7,282.3 52.2,282.3 
		123.3,164.9 194.5,282.3 219.1,282.3 137.3,146.5 218.6,12.5 192.8,12.5 129,118.7 130.4,120.9 194.3,14.7 214.3,14.7 134.5,146.5 
		215,280.1 195.9,280.1 123.3,160.3 50.8,280.1 31.8,280.1 123.3,127.9 53.8,12.5 28,12.5 103.7,137.2 102.3,139.5 23.7,10.2 
		55.3,10.2 126.1,128 35.8,277.8 49.5,277.8 123.3,155.7 197.2,277.8 210.9,277.8 131.7,146.5 210.2,17 195.8,17 131.8,123.2 
		133.2,125.6 197.3,19.3 205.9,19.3 128.9,146.5 206.8,275.5 198.6,275.5 123.3,151.1 48.1,275.5 39.9,275.5 128.9,128 56.8,7.9 
		19.5,7.9 100.9,141.8 99.5,144.2 15.2,5.7 58.4,5.7 131.8,127.9 44,273.3 46.7,273.3 123.3,146.5 199.9,273.3 202.7,273.3 
		126.1,146.5 201.7,21.5 198.8,21.5 124.7,144.2 	"/>
</g>
<g id="Linea_6">
	<polyline fill="none" stroke="#000000" stroke-linecap="round" stroke-linejoin="round" stroke-miterlimit="10" points="135,119.4 
		197.3,19.3 205.9,19.3 127.5,144.1 206.8,275.5 198.6,275.5 123.3,151.1 48.1,275.5 39.9,275.5 130.4,125.5 58.4,5.7 15.2,5.7 
		96.6,139.5 100.9,132.5 28,12.5 53.8,12.5 121.9,125.6 27.7,282.3 52.2,282.3 123.3,164.9 194.5,282.3 219.1,282.3 135.9,144.1 
		218.6,12.5 192.8,12.5 131,112.7 126.9,105.9 188.3,5.7 231.3,5.7 144.3,144.1 231.3,289.1 190.5,289.1 123.3,178.7 56.2,289.1 
		15.4,289.1 113.5,125.6 49.3,19.3 40.7,19.3 105,125.6 	"/>
</g>
</svg>
