<?xml version="1.0" encoding="utf-8"?>
<!-- Generator: Adobe Illustrator 21.0.0, SVG Export Plug-In . SVG Version: 6.00 Build 0)  -->
<svg version="1.0" xmlns="http://www.w3.org/2000/svg" xmlns:xlink="http://www.w3.org/1999/xlink" x="0px" y="0px"
	 viewBox="0 0 249.4 354.3" enable-background="new 0 0 249.4 354.3" xml:space="preserve">
<g id="Linea_16" display="none">
	
		<polyline display="inline" fill="none" stroke="#000000" stroke-width="0.25" stroke-linecap="round" stroke-linejoin="round" stroke-miterlimit="10" points="
		123.5,174 42.3,21.5 44.9,21.5 124.7,171.7 204.6,21.5 207.1,21.5 106.6,210.5 106.6,289.1 142.9,289.1 142.9,180.2 140.4,184.7 
		140.4,286.8 109,286.8 109,210.5 210.9,19.3 203.2,19.3 124.7,167 46.2,19.3 38.5,19.3 121.1,174.2 121.1,178.6 118.7,183.1 
		118.7,174.3 34.8,17 47.6,17 124.7,162.4 201.9,17 214.7,17 111.4,210.6 111.4,284.4 138,284.4 138,189.1 135.6,193.6 135.6,282 
		113.8,282 113.8,210.7 218.5,14.7 200.5,14.7 124.7,157.7 49,14.7 31,14.7 116.2,174.4 116.2,187.7 113.8,192.2 113.8,174.5 
		27.2,12.5 50.3,12.5 124.7,153 199.1,12.5 222.2,12.5 116.3,210.8 116.3,279.7 133.2,279.7 133.2,198.1 130.8,202.5 130.8,277.3 
		118.7,277.3 118.7,210.8 226,10.2 197.8,10.2 124.7,148.3 51.7,10.2 23.4,10.2 111.4,174.7 111.4,196.7 109,201.3 109,174.8 
		19.7,7.9 53.1,7.9 124.7,143.5 196.4,7.9 229.8,7.9 121.1,210.9 121.1,275 128.4,275 128.4,207 125.9,211.4 125.9,272.6 
		123.5,272.6 123.5,211 233.6,5.7 195,5.7 124.7,138.8 54.4,5.7 15.9,5.7 106.6,174.9 106.6,205.8 	"/>
</g>
<g id="Linea_6">
	<polyline fill="none" stroke="#000000" stroke-linecap="round" stroke-linejoin="round" stroke-miterlimit="10" points="121,174 
		38.5,19.3 46.2,19.3 124.7,167 203.2,19.3 210.9,19.3 106.6,215.1 106.6,289.1 142.9,289.1 142.9,190.4 135.6,203.8 135.6,282 
		113.8,282 113.8,215.3 222.2,12.5 199.1,12.5 124.7,153 50.3,12.5 27.2,12.5 113.8,174.5 113.8,187.6 106.6,201.2 106.6,174.9 
		15.9,5.7 54.4,5.7 124.7,138.8 195,5.7 233.6,5.7 121.1,215.5 121.1,275 128.4,275 128.4,217.1 	"/>
	
		<line fill="none" stroke="#000000" stroke-width="0.25" stroke-linecap="round" stroke-linejoin="round" stroke-miterlimit="10" x1="124.7" y1="167" x2="148.9" y2="121.6"/>
</g>
</svg>
