<?xml version="1.0" encoding="utf-8"?>
<!-- Generator: Adobe Illustrator 21.0.0, SVG Export Plug-In . SVG Version: 6.00 Build 0)  -->
<svg version="1.0" xmlns="http://www.w3.org/2000/svg" xmlns:xlink="http://www.w3.org/1999/xlink" x="0px" y="0px"
	 viewBox="0 0 249.4 354.3" enable-background="new 0 0 249.4 354.3" xml:space="preserve">
<g id="Linea_16" display="none">
	
		<polyline display="inline" fill="none" stroke="#000000" stroke-width="0.25" stroke-linecap="round" stroke-linejoin="round" stroke-miterlimit="10" points="
		188.6,23.8 50.3,23.8 50.3,21.5 193,21.5 31.7,253.3 31.7,289.1 222.2,289.1 222.2,255.1 73.6,255.1 220,44.8 220,40.6 69.1,257.4 
		220,257.4 220,286.9 34,286.9 34,254.2 197.5,19.3 48,19.3 48,26.1 187,26.1 185.4,28.3 45.8,28.3 45.8,17 201.9,17 36.3,255 
		36.3,284.6 217.7,284.6 217.7,259.7 64.7,259.7 220,36.5 220,32.4 60.2,261.9 215.4,261.9 215.4,282.3 38.6,282.3 38.6,255.9 
		206.3,14.7 43.5,14.7 43.5,30.6 183.9,30.6 182.3,32.9 41.2,32.9 41.2,12.5 210.8,12.5 40.8,256.8 40.8,280.1 213.2,280.1 
		213.2,264.2 56.7,264.2 56.7,262.9 220,28.3 220,24.1 54.4,262 54.4,266.5 210.9,266.5 210.9,277.8 43.1,277.8 43.1,257.6 
		215.3,10.2 39,10.2 39,35.1 180.7,35.2 179.1,37.4 36.7,37.4 36.7,7.9 217.7,7.9 217.7,10.8 45.4,258.5 45.4,275.5 208.6,275.5 
		208.6,268.7 52.2,268.7 52.2,261.1 220,20 220,15.9 49.9,260.2 49.9,271 206.4,271 206.4,273.3 47.6,273.3 47.6,259.4 220,11.8 
		220,5.7 34,5.7 34,39.7 177.5,39.7 	"/>
</g>
<g id="Linea_6">
	<polyline fill="none" stroke="#000000" stroke-linecap="round" stroke-linejoin="round" stroke-miterlimit="10" points="
		181.3,26.1 48,26.1 48,19.3 194.6,19.3 31.7,253.3 31.7,289.1 222.2,289.1 222.2,255.1 73.6,255.1 220,44.8 220,32.4 60.2,261.9 
		215.4,261.9 215.4,282.3 38.6,282.3 38.6,255.9 207.9,12.5 41.2,12.5 41.2,32.9 176.5,32.9 171.8,39.7 34,39.7 34,5.7 220,5.7 
		220,7.6 45.4,258.5 45.4,275.5 208.6,275.5 208.6,268.7 52.2,268.7 52.2,261.1 220,20 	"/>
</g>
</svg>
