<?xml version="1.0" encoding="utf-8"?>
<!-- Generator: Adobe Illustrator 21.0.0, SVG Export Plug-In . SVG Version: 6.00 Build 0)  -->
<svg version="1.0" xmlns="http://www.w3.org/2000/svg" xmlns:xlink="http://www.w3.org/1999/xlink" x="0px" y="0px"
	 viewBox="0 0 249.4 354.3" enable-background="new 0 0 249.4 354.3" xml:space="preserve">
<g id="Linea_16" display="none">
	
		<polyline display="inline" fill="none" stroke="#000000" stroke-width="0.25" stroke-linecap="round" stroke-linejoin="round" stroke-miterlimit="10" points="
		133.8,323.1 231.3,323.1 231.3,289.1 115.7,289.1 115.7,307.3 31.7,307.3 31.7,305 113.4,305 113.4,302.7 29.5,302.7 29.5,309.5 
		117.9,309.5 117.9,291.4 229,291.4 229,320.9 133.8,320.9 133.8,318.6 226.8,318.6 226.8,293.7 120.2,293.7 120.2,311.8 
		27.2,311.8 27.2,300.5 113.4,300.5 113.4,298.2 24.9,298.2 24.9,314.1 122.5,314.1 122.5,295.9 224.5,295.9 224.5,316.3 
		133.8,316.3 133.8,314.1 222.2,314.1 222.2,298.2 124.7,298.2 124.7,316.3 22.7,316.3 22.7,295.9 113.4,295.9 113.4,293.7 
		20.4,293.7 20.4,318.6 127,318.6 127,300.5 220,300.5 220,311.8 133.8,311.8 133.8,309.5 217.7,309.5 217.7,302.7 129.3,302.7 
		129.3,320.9 18.1,320.9 18.1,291.4 113.4,291.4 113.4,289.1 15.9,289.1 15.9,323.1 131.5,323.1 131.5,305 215.4,305 215.4,307.3 
		133.8,307.3 	"/>
</g>
<g id="Linea_6">
	<polyline fill="none" stroke="#000000" stroke-linecap="round" stroke-linejoin="round" stroke-miterlimit="10" points="
		138.3,309.5 217.7,309.5 217.7,302.7 131.5,302.7 131.5,323.1 15.9,323.1 15.9,289.1 111.1,289.1 111.1,295.9 22.7,295.9 
		22.7,316.3 124.7,316.3 124.7,295.9 224.5,295.9 224.5,316.3 138.3,316.3 138.3,323.1 231.3,323.1 231.3,289.1 117.9,289.1 
		117.9,309.5 29.5,309.5 29.5,302.7 111.1,302.7 	"/>
</g>
</svg>
